<?xml version="1.0" encoding="UTF-8" standalone="no"?>
<!DOCTYPE svg PUBLIC "-//W3C//DTD SVG 20010904//EN" "http://www.w3.org/TR/2001/REC-SVG-20010904/DTD/svg10.dtd">
<svg version="1.0" xmlns="http://www.w3.org/2000/svg" width="247.000000pt" height="247.000000pt" viewBox="0 0 247.000000 247.000000" preserveAspectRatio="xMidYMid meet">
<metadata>
Created by potrace 1.14, written by Peter Selinger 2001-2017
</metadata>
<g transform="translate(0.000000,247.000000) scale(0.100000,-0.100000)" fill="#000000" stroke="none">
<path d="M0 1235 l0 -1235 1235 0 1235 0 0 1235 0 1235 -1235 0 -1235 0 0 -1235z m1337 888 c37 -32 90 -78 117 -103 49 -46 146 -162 146 -175 0 -4 9 -19 19 -34 17 -24 26 -53 35 -116 2 -15 14 -22 46 -27 123 -21 258 -131 439 -356 28 -35 51 -71 51 -80 0 -49 -267 -343 -351 -386 -19 -9 -48 -26 -65 -36 -17 -11 -50 -21 -75 -24 l-44 -4 -6 -48 c-9 -81 -82 -187 -216 -315 -90 -85 -203 -169 -229 -169 -15 0 -140 99 -226 179 -115 106 -208 249 -208 320 0 26 -4 31 -25 31 -71 0 -197 78 -310 194 -91 92 -205 231 -205 249 0 20 107 157 189 240 68 71 171 157 186 157 3 0 23 11 43 25 25 17 50 25 79 25 l43 0 0 43 c0 26 8 54 20 72 12 17 28 46 38 65 33 69 267 294 356 342 38 20 56 12 153 -69z m-802 -100 c72 -8 86 -13 97 -38 13 -28 35 -31 102 -13 35 9 51 9 72 -1 l27 -12 -49 -47 c-27 -26 -63 -65 -79 -87 -32 -43 -39 -50 -114 -110 -28 -22 -53 -47 -55 -55 -3 -8 -15 -21 -27 -28 -30 -19 -42 0 -34 53 18 124 18 119 -6 130 -24 10 -27 18 -49 125 -11 53 -10 56 16 78 16 14 33 21 43 17 9 -4 34 -9 56 -12z m1482 -19 c16 -25 16 -30 -3 -103 -15 -59 -25 -78 -42 -86 -19 -8 -22 -15 -17 -40 3 -16 9 -57 12 -91 7 -76 -8 -91 -46 -47 -14 17 -42 41 -61 54 -71 47 -128 101 -166 157 -21 31 -51 67 -66 80 -49 41 -38 51 50 45 42 -3 86 -10 97 -16 13 -7 20 -7 22 0 15 44 68 70 150 72 46 1 55 -2 70 -25z m-52 -1215 c0 -30 -3 -73 -7 -96 -5 -33 -3 -43 8 -43 23 0 45 -45 55 -115 15 -106 -4 -123 -117 -105 -55 8 -74 16 -94 38 -22 25 -29 27 -65 21 -22 -4 -64 -8 -92 -8 -64 -1 -69 14 -20 56 19 15 58 59 87 96 29 38 71 80 94 94 22 14 61 48 86 74 25 27 50 47 55 45 6 -1 10 -27 10 -57z m-1362 -43 c55 -28 127 -103 127 -133 0 -7 4 -13 9 -13 5 0 12 -12 16 -28 3 -15 15 -32 27 -37 12 -6 28 -20 36 -32 14 -23 14 -23 -34 -23 -27 0 -67 5 -89 10 -36 8 -41 7 -65 -20 -37 -41 -180 -63 -200 -30 -24 38 1 175 36 195 24 13 34 27 28 37 -11 17 -24 137 -17 154 5 14 11 12 38 -17 17 -19 57 -48 88 -63z"/>
<path d="M1898 1953 c7 -3 16 -2 19 1 4 3 -2 6 -13 5 -11 0 -14 -3 -6 -6z"/>
</g>
</svg>