<?xml version="1.0" encoding="UTF-8"?>
<svg id="Layer_2" data-name="Layer 2" xmlns="http://www.w3.org/2000/svg" viewBox="0 0 1116.33 1113.03">
  <g id="Layer_1-2" data-name="Layer 1">
    <g>
      <path d="M1111.97,551.38c-8.28-7.43-16.17-15.31-24.01-23.21-38.13-38.42-76.37-76.73-114.03-115.61-4.78-4.93-9.57-13.35-8.86-19.52,3.54-30.62,4.43-61.03-.12-91.58-.6-4.05-.48-8.95,1.29-12.46,3.31-6.56,9.15-11.92,12.01-18.61,5.27-12.32,10.71-24.93,13.21-37.97,3.18-16.57,3.7-33.68,4.95-50.58,.38-5.16,.57-10.86-1.19-15.56-5.98-16-16.73-28.81-31.91-36.36-8.91-4.43-19.58-7.74-29.34-7.47-15.75,.43-31.35,4.82-47.12,6.44-16.64,1.71-32.79,3.64-45.05,16.86-7.94,8.56-16.39,13.69-29.15,8.1-7.94-3.48-17.47-5.29-26.13-4.82-21.01,1.14-41.91,4.26-62.89,6.02-3.36,.28-7.75-1.46-10.32-3.76-17.15-15.41-34.09-31.07-50.81-46.95-20.2-19.19-40.42-38.39-60.06-58.15-14.52-14.61-27.95-30.31-42.36-45.04-1.61-1.64-7.6-1.5-9.56,.17-6.57,5.57-12.42,12.04-18.2,18.47-16.12,17.92-31.08,37.02-48.32,53.78-25.86,25.15-53.38,48.59-79.98,72.99-9.02,8.27-20.12,10.14-31.26,5.49-4.89-2.04-10.73-2.58-16.11-2.49-10.44,.17-20.86,1.42-31.3,1.91-6.64,.32-14.2-1.93-19.78,.54-11.15,4.93-16.96-2.52-24.25-7.35-2.35-1.55-4.43-3.93-7-4.65-13.26-3.74-26.65-7.03-39.98-10.55-8.56-2.26-16.97-5.75-25.67-6.68-10.91-1.17-22.03-.28-33.06-.28l-1.13-2.46c-8.06,3.68-15.99,7.66-24.19,10.99-17.43,7.07-23.68,22.1-25.34,38.62-3.27,32.56,5.88,63.97,11.62,95.63,.52,2.89,2.81,5.63,4.73,8.08,8.79,11.24,13.46,22.67,12.13,38.15-1.95,22.7-.6,45.8,.78,68.64,.61,10.17-1.05,18.03-8.3,25.26-11.88,11.86-23.15,24.32-34.79,36.42-24.14,25.13-48.11,50.42-72.62,75.18-11.21,11.33-23.65,21.44-35.29,32.36-4.45,4.18-4.31,7.91,.7,12.91,23.79,23.77,47.44,47.71,70.28,72.39,23.28,25.16,45.19,51.58,68.48,76.73,7.8,8.42,10.98,16.45,10.7,28.17-.61,25.33-.03,50.83,2.44,76.02,.95,9.71-.75,16.07-6.9,22.59-10.52,11.14-17.99,23.93-19.15,39.61-1.07,14.42,.75,29.69-3.52,43.05-4.06,12.72-4.15,23.52,1.03,34.9,2.29,5.04,5.59,9.69,8.87,14.19,10.22,14.03,22.5,25.45,41.04,25.66,9.72,.11,19.45-2.71,29.19-2.84,28.72-.37,55.27-6.54,78.77-24.26,4.54-3.42,12.14-3.95,18.29-3.85,12.89,.21,25.74,1.98,38.63,2.64,12.1,.62,24.24,.67,36.36,.9,1.96,.04,4.36,.39,5.81-.55,7.6-4.93,12.77-.71,17.93,4.19,10.67,10.14,21,20.67,32.12,30.29,17.93,15.51,37.15,29.6,54.41,45.8,21.88,20.54,42.06,42.88,63.78,63.6,2.58,2.46,12.48,1.75,15.17-1.1,19.84-21.02,37.66-44,58.14-64.34,26.86-26.67,55.36-51.71,83.7-76.84,4.1-3.64,11.26-5.38,16.97-5.31,9.57,.12,19.07,2.83,28.68,3.65,6.91,.59,13.93-.03,20.89-.28,13.23-.48,26.46-1.59,39.67-1.4,6.4,.09,14.07,.78,18.85,4.32,8.9,6.58,16.72,13.18,28.77,13.99,9.4,.63,18.46,5.36,27.89,6.87,16.99,2.72,34.14,4.42,51.24,6.43,1.22,.14,2.56-.64,3.84-1.01,19.05-5.48,33.47-17.71,43.18-34.12,5.35-9.03,8.61-20.81,8.42-31.26-.29-15.7-3.3-31.62-7.29-46.89-4.13-15.8-8.87-32.04-16.97-46-6.54-11.27-10.75-20.44-4.94-32.88,1.84-3.94,1.54-9.21,1.19-13.79-1.67-22.17-4.13-44.3-5.26-66.49-.28-5.4,2.1-12.07,5.55-16.29,9.3-11.43,19.82-21.87,29.89-32.67,18.02-19.33,35.42-39.3,54.28-57.78,18.02-17.66,37.51-33.83,56.45-50.55,5.89-5.21,8.29-10.04,1.2-16.4ZM752.71,185.66c2.56,.64,5.09,1.64,7.68,1.85,12.55,1.02,25.14,1.53,37.66,2.8,13.21,1.34,26.82-1.86,39.28,7.28,7.64,5.61,13.52,.94,15.67-8.39,2.21-9.62,7.07-16.67,18.69-17.23,5.08-.24,9.9-3.97,15.01-5.56,21.08-6.55,42.46-6.28,63.92-2.18,1.31,.25,3.33,1.47,3.48,2.46,1.61,11.17,10.28,20.1,5.06,33.83-6.34,16.65-6.6,35.51-11.63,52.8-1.68,5.79-9.62,10.08-15.28,14.28-2.8,2.08-9.87,2.24-9.93,3.51-.25,5.32,1.06,10.83,2.5,16.08,1.02,3.72,4.38,7.07,4.57,10.71,1.04,19.1,1.61,38.23,1.83,57.36,.04,3.39-2.35,6.8-3.61,10.21-4.07-1.94-10.03-2.8-11.86-6.02-5.17-9.1-8.66-19.16-12.81-28.85,1.05-.33,2.1-.66,3.15-.99-.89-9.53-.98-19.21-2.86-28.54-2.74-13.6-6.24-27.11-10.47-40.32-2.29-7.16,1.24-8.12,6.36-9.56,7.98-2.25,16.1-4.35,23.59-7.76,2.92-1.33,5.7-5.85,6.14-9.23,1.57-12.01,2.13-24.16,3.02-36.26,.77-10.45-3.05-12.24-12.97-10.04-12.37,2.73-25.35,2.6-37.87,4.79-3.43,.6-7.13,4.55-8.99,7.92-1.8,3.27-1.85,7.75-1.89,11.71-.19,21.25-7.6,18.95-24.92,14.11-12.73-3.55-27.37-3.87-37.93-10.66-14.22-9.15-30.1,1.73-42.78-7.32-4.95-3.53-8.96-8.77-12.36-13.91-1.3-1.97,.28-5.85,.55-8.86Zm-580.62-25.55c5.99-5.06,20.42-4.4,26.12,.9,1.86,1.73,4.99,2.68,7.63,2.9,12.18,1.02,24.39,1.87,36.61,2.39,12.68,.53,21.45,7.74,23.58,20,1.79,10.35,10.85,13.64,19.57,7.95,2.89-1.89,7.65-.65,11.39-1.55,10.47-2.53,20.84-5.51,31.29-8.12,2.17-.54,4.68-.84,6.78-.29,7.34,1.9,14.69,3.91,21.76,6.61,1.72,.66,3.93,4.86,3.29,6.15-6.23,12.74-23.37,18.91-37.08,14.12-2.4-.84-5.59-1.26-7.82-.37-10.47,4.16-20.66,9-31.09,13.27-7.1,2.91-14.34,5.54-21.69,7.71-1.29,.38-4.37-1.71-5.02-3.32-3.9-9.56-7.07-19.42-11.07-28.93-1.2-2.85-3.9-6.41-6.56-7.08-17.13-4.32-34.38-8.45-52.26-7.76-1.42,.05-4.06,1.9-3.96,2.6,1.43,9.89,3.25,19.73,4.95,29.58,.11,.65,.04,1.33,.12,1.99,.88,7.02-.74,17.22,3.22,20.36,7.35,5.82,17.73,8.67,27.29,10.65,12.19,2.53,16.24,12.91,10.27,24.15-8.25,15.52-18.21,31.06-14.92,50.15,2.99,17.34-4.09,29.3-19.52,36.58-1.33,.63-5.74-1.6-6.01-3.02-1.08-5.68-1.09-11.56-1.5-17.36l-1.92-.59c2.87-11.06,6.44-22,8.42-33.22,1.99-11.23,2.54-22.73,3.35-34.14,.1-1.42-1.81-3.62-3.33-4.4-5.58-2.88-11.69-4.83-16.98-8.12-2.62-1.63-4.31-5.23-5.7-8.27-8.48-18.57-4.96-39.53-10.35-58.09-4.73-16.28,.62-24.51,11.15-33.42Zm182.24,772.82c-10.42,.04-21.05,.22-31.21-1.74-14.57-2.81-28.65-8.21-43.25-10.69-3.57-.61-10.82,5.05-12.12,9.17-4.6,14.61-10.37,19.34-25.71,20.18-7.33,.4-15.08,2.36-21.66,5.61-14.19,7-42.95,5.65-53.73-4.06-1.99-1.79-3.62-4.94-3.8-7.58-.51-7.28-.18-14.63-.18-21.95-.99-.21-1.97-.42-2.96-.63,4.14-18.36,7.37-37.01,12.98-54.91,1.65-5.25,10.16-8.26,15.34-12.52,3.58-2.94,9.37-5.98,9.72-9.44,.68-6.65-.35-14.31-3.23-20.33-9.48-19.82-7.02-40.88-5.47-61.08,.85-11.14,9.8-.82,12.77,1.35,8.52,6.25,12.9,14.32,12.36,26.55-.51,11.61,4.71,23.45,7.29,35.21,.88,4.04,1.09,8.24,2.15,12.23,1.04,3.9,2.97,7.55,4.18,11.42,1.32,4.23,4.21,9.41,2.83,12.66-1.44,3.41-6.85,6.11-11.02,7.19-8.31,2.15-17.04,2.61-25.4,4.61-1.93,.46-4.21,4.2-4.38,6.57-1.08,15.41-1.83,30.85-2.03,46.29-.02,1.75,4.07,5.12,6.18,5.06,11.25-.33,22.64-.67,33.66-2.72,6.34-1.18,13.85-4.17,17.66-8.9,5.17-6.42,7.26-15.31,10.73-23.11,1.25-2.8,2.67-7.82,4.04-7.83,4.3-.03,8.67,1.68,12.91,3.05,2.25,.73,4.16,2.56,6.42,3.19,10.45,2.9,20.87,6.01,31.49,8.14,7.1,1.42,14.5,1.61,21.79,1.85,10.98,.36,24.74,10.47,26.91,21.08,.35,1.7-3.41,6.07-5.28,6.07Zm590.47,24.27c-11.45,.66-23.04-1.02-34.57-1.8-1.45-.1-2.83-1.05-4.29-1.24-10.89-1.42-21.79-2.8-32.7-4.08-12.24-1.43-19.31-8.64-21.41-20.36-.43-2.4-5.05-6.07-7.33-5.8-19.91,2.4-39.67,6.14-59.61,8.23-8.71,.92-17.84-.43-26.52-2.09-2.8-.53-5.32-5.09-6.83-8.34-.49-1.05,2.87-3.67,4.13-5.78,7.87-13.19,19.65-9.38,32.12-10.12,17.82-1.05,35.48-7.77,52.83-13.24,25.61-8.07,31.64-2.55,31.4,20.65-1.99,7.74,4.86,8.02,10.35,12.18,14.26,10.78,30.54,1.3,44.64,7.7,2.11,.96,5.95-.43,8.22-1.92,1.17-.77,1.1-4.21,.78-6.32-2.18-14.51-5.05-28.94-6.69-43.51-.68-6.05-2.45-7.59-8.47-8.69-10.06-1.84-19.79-5.69-29.46-9.23-1.05-.39-1.43-4.41-1.03-6.55,.5-2.67,2.5-5.04,3.22-7.7,3.78-14.09,4.7-29.76,11.73-41.93,7.3-12.66,1.93-24.8,5.02-36.42,1.97-7.4,8.96-13.47,13.69-20.14,2.29,2.11,6.57,4.23,6.56,6.32-.09,18.26-.34,36.56-1.82,54.75-.76,9.34-4.54,18.41-6.06,27.74-.41,2.54,1.73,6.43,3.91,8.26,3.39,2.85,7.85,4.42,11.8,6.63,12.47,7,16.16,18.92,17.28,31.95,.78,9.11,.31,18.33,1.24,27.42,.38,3.77,2.93,7.32,4.52,10.96,.71,1.64,1.93,3.2,2.14,4.9,1.02,8.09-10.83,27.1-18.8,27.56Zm96.78-395.85c-2.27,6.63-6.1,12.99-10.36,18.62-16.65,22.02-33.16,44.19-50.87,65.34-11.77,14.05-25.44,26.52-38.33,39.62-9.46,9.62-18.6,19.63-28.69,28.55-8.62,7.62-18.38,13.94-27.64,20.83-3.94,2.92-7.75,6.05-11.88,8.67-11.63,7.35-23.35,14.56-35.11,21.68-17.27,10.46-35.35,17.16-56.17,13.29-2.11-.39-6.6,3.33-7.28,5.86-1.21,4.5-.34,9.57-.34,15.57,4.19,21.14-11.8,35.73-20.85,52.96-4.35,8.28-8.69,16.62-13.83,24.41-6.26,9.5-12.63,19.11-20.23,27.52-18.65,20.63-37.17,41.5-57.37,60.55-17.62,16.62-37.43,30.93-56.35,46.16-9.06,7.29-18,14.78-27.53,21.41-6.75,4.7-14,9.26-21.71,11.83-12.9,4.31-21.45-6-30.19-12.43-16.88-12.41-32.81-26.14-48.78-39.75-10.57-9.02-20.6-18.68-30.7-28.24-7.54-7.14-14.89-14.48-22.18-21.89-7.48-7.6-15.07-15.14-22.08-23.16-10.36-11.85-20.51-23.91-30.24-36.28-4.57-5.8-8.05-12.48-11.83-18.87-3.63-6.13-7.38-12.22-10.39-18.66-2.9-6.19-4.97-12.77-7.29-19.22-2.73-7.56-6.01-15.02-7.77-22.81-1.29-5.73,.12-12.05-.98-17.86-.47-2.44-4.03-5.49-6.7-6.11-14.35-3.37-29.32-4.69-43.19-9.36-14.46-4.88-28.97-11.19-41.55-19.7-16.91-11.44-32.37-25.16-47.76-38.69-13.75-12.09-26.92-24.9-39.69-38.03-9.94-10.23-18.87-21.44-28.27-32.2-10.62-12.14-21.67-23.93-31.79-36.48-9.49-11.78-18.75-23.9-26.45-36.86-2.08-3.5,1.09-10.92,3.26-15.94,2.45-5.65,6.19-10.84,9.9-15.84,10.17-13.73,20.37-27.45,31.01-40.81,10.58-13.28,21.28-26.52,32.73-39.05,12.83-14.03,25.91-27.96,40.08-40.59,16.22-14.45,33.43-27.85,50.88-40.81,7.37-5.47,16.56-8.44,24.69-12.96,10-5.56,19.16-13.31,29.77-16.87,10.96-3.68,23.25-4.73,34.91-4.45,6.35,.15,8.79-.56,8.94-6.47,.16-6.49,.27-13.01-.24-19.47-1.17-14.77,6.92-25.53,14.68-36.74,4.12-5.96,6.64-13.01,10.19-19.4,3.62-6.52,7.1-13.21,11.53-19.18,11.31-15.25,22.28-30.89,34.96-44.96,12.57-13.95,26.58-26.73,40.83-39.01,21.36-18.4,43.14-36.36,65.41-53.65,13.22-10.26,27.03-20.34,42.03-27.43,4.98-2.35,15.57,3.4,21.69,7.98,15.73,11.78,30.3,25.1,45.51,37.6,12.31,10.11,25.17,19.56,37.2,29.98,7.59,6.58,13.93,14.58,21.13,21.63,7.18,7.03,15.12,13.32,22.01,20.61,6.58,6.95,12.34,14.68,18.28,22.21,8.62,10.93,17.4,21.75,25.47,33.07,4.25,5.96,7.65,12.66,10.54,19.41,3.97,9.29,5.23,20.32,11.01,28.11,9.17,12.38,6.57,25.72,7.94,38.93,.18,1.75,4.5,4.81,6.18,4.39,16.51-4.17,29.63,6.58,44.13,10.29,13.57,3.47,26.84,10.42,38.52,18.36,16.67,11.32,31.85,24.85,47.5,37.64,8.15,6.66,16.24,13.44,23.79,20.76,7.24,7.02,13.72,14.82,20.55,22.26,6.17,6.72,12.53,13.28,18.53,20.15,8.1,9.27,16.05,18.68,23.85,28.19,10.69,13.04,21.51,26,31.65,39.46,5.82,7.74,15.31,14.73,11.35,26.3Z"/>
      <path d="M1004.35,545.68c-3.27-5.04-5.46-10.94-9.36-15.37-9.82-11.18-20.41-21.68-30.56-32.57-3.78-4.06-7.35-8.33-10.73-12.72-4.27-5.56-7.85-11.69-12.43-16.96-6.95-8-14.31-15.67-21.84-23.14-8.98-8.91-18.31-17.48-27.54-26.15-.42-.4-1.36-.21-1.88-.56-7.1-4.81-14.18-9.66-21.25-14.52-6.17-4.24-12.34-8.49-18.5-12.74-1.74-1.2-3.41-2.51-5.2-3.63-7.46-4.67-14.42-11.09-22.56-13.47-10.03-2.94-21.03-3.09-31.64-3.39-19.54-.55-37.82,2.94-52.65,17.57-2.31,2.28-8.02,1.45-12.12,1.22-.66-.04-1.86-4.65-1.45-6.9,2.3-12.7,18.83-19.03,15.54-34.38-.07-.3,.65-.73,.89-1.15,2.69-4.65,5.36-9.32,7.84-13.63-4.03-18.46-7.62-35.05-11.35-51.61-.21-.95-1.65-1.55-2.26-2.49-2.14-3.32-4.3-6.65-6.18-10.12-.91-1.67-.77-4.01-1.89-5.44-7.98-10.15-16.17-20.14-24.28-30.19-3.91-4.84-7.51-9.98-11.78-14.48-6.54-6.89-13.64-13.26-20.33-20.02-5.25-5.3-9.89-11.25-15.43-16.2-6.87-6.13-14.51-11.39-21.59-17.3-6.56-5.48-12.85-11.29-19.2-17.01-7.39-6.66-14.76-13.35-22.07-20.09-4.8-4.43-9.16-9.4-14.32-13.35-6.34-4.86-13.27-8.96-20.01-13.27-1.28-.82-3.37-2.03-4.26-1.55-9.08,4.96-19.12,8.97-26.71,15.7-14.45,12.81-27.4,27.32-41.12,40.97-16.02,15.94-32.34,31.58-48.29,47.59-15.19,15.24-30.17,30.69-45.08,46.21-10.71,11.15-17.92,24.26-21.82,39.32-1.95,7.54-6.79,14.74-7.09,22.22-.53,13.25-3.86,27.17,6.23,39.37,6.07,7.34,10.68,16.06,14.88,24.69,1.81,3.72,1.32,8.79,.98,13.17-.09,1.16-4.07,3.39-5.27,2.86-7.3-3.21-14.31-7.08-21.42-10.73-7.05-3.62-13.96-9.92-21.17-10.29-15.81-.82-31.89,.5-47.62,2.68-7.78,1.08-15.18,5.72-22.48,9.29-6.27,3.07-12.96,6.01-18.05,10.58-13.74,12.36-26.81,25.47-39.97,38.45-16.45,16.21-32.74,32.58-49.06,48.92-4.21,4.22-8.36,8.51-12.39,12.89-12.31,13.37-24.66,26.71-36.76,40.27-5.45,6.1-11.07,12.27-15.15,19.26-1.79,3.06-1.47,9.35,.6,12.27,5.24,7.4,11.98,13.76,18.17,20.48,10.36,11.25,20.98,22.27,31.11,33.73,10.91,12.35,21.39,25.08,32.03,37.67,4.39,5.19,8.11,11.11,13.17,15.52,12.18,10.62,24.97,20.55,37.51,30.76,8.38,6.82,16.49,14.01,25.24,20.31,6.37,4.59,13.71,7.81,20.42,11.95,10.59,6.53,20.5,14.24,34.29,12.57,8.04-.97,16.27-.41,24.4-.76,3.24-.14,6.89-.05,9.62-1.47,11.53-6,22.74-12.61,34.19-18.77,1.91-1.03,5.23-1.97,6.5-1.05,1.74,1.28,3.54,4.93,2.88,6.59-2.41,6.02-5.99,11.55-8.84,17.41-4.97,10.24-12,20.18-13.91,31-1.89,10.73,.04,22.77,2.93,33.53,3.36,12.52,8.44,24.92,14.9,36.14,5.07,8.82,13.73,15.51,20.14,23.66,5.39,6.85,9.02,15.18,14.86,21.55,9.79,10.68,20.6,20.43,31.18,30.36,10.57,9.91,21.33,19.61,32.1,29.29,13.08,11.76,26.09,23.62,39.46,35.05,10.31,8.81,20.91,17.35,31.93,25.24,2.42,1.73,8.04,1.57,10.7-.09,8.87-5.55,17.6-11.58,25.38-18.55,12.55-11.24,24.25-23.43,36.4-35.12,9.06-8.72,18.43-17.14,27.38-25.96,9.97-9.82,19.73-19.86,29.4-29.97,9.57-10,18.82-20.31,28.42-30.29,8.72-9.06,20.09-16.18,21.32-30.48,.07-.86,1.07-1.62,1.51-2.48,2.42-4.81,4.97-9.57,7.13-14.5,1.42-3.23,2.2-6.74,3.35-10.09,1.48-4.33,4.39-8.65,4.34-12.95-.26-23.51-5.54-45.47-20.83-64.38-2.19-2.7-1.21-8.5-.44-12.63,.17-.89,6.29-1.95,8.78-.87,5.75,2.49,10.94,6.29,16.4,9.48,6.95,4.06,13.92,11.31,20.93,11.38,15.58,.15,31.39-2.39,46.72-5.63,10.31-2.18,20.14-7.08,29.86-11.47,6.5-2.93,13.21-6.22,18.46-10.89,12.39-11.02,24.07-22.85,35.84-34.55,16.73-16.65,33.47-33.29,49.83-50.31,13.08-13.61,25.78-27.61,38.3-41.75,7.74-8.74,15.76-17.51,21.72-27.42,2.08-3.46-1.24-10.53-2.89-15.71-.7-2.2-3.78-3.52-5.16-5.64Zm-27.09,25.28c-6.08,8.82-11.4,18.26-18.18,26.5-9.4,11.44-19.7,22.15-29.9,32.91-13.39,14.14-26.58,28.51-40.73,41.86-12.08,11.39-25.14,21.79-38.24,32.03-9.88,7.73-20.73,14.21-30.74,21.79-10.45,7.91-27.7,9.47-39.64,3.23-11.58-6.05-24.32-10.36-34.85-17.83-18.02-12.79-34.43-27.82-52.05-41.21-18.27-13.87-37.36-26.66-55.72-40.41-9.73-7.28-18.65-15.64-28.03-23.41-.97-.81-2.56-.87-3.86-1.28-.44,2.28-2.05,5.4-1.12,6.71,4.3,5.99,9.58,11.27,13.99,17.19,7.34,9.85,14.02,20.19,21.46,29.96,6.89,9.05,14.66,17.42,21.6,26.43,11.83,15.36,23.48,30.86,34.88,46.54,9.25,12.71,19.3,25.1,26.59,38.9,5.45,10.33,10.79,23.16,9.37,33.99-1.45,11.08-10.92,21.24-17.4,31.47-4.41,6.95-9.62,13.41-14.68,19.93-7.26,9.36-14.38,18.87-22.17,27.78-9.27,10.6-19.05,20.77-28.87,30.86-8.73,8.97-17.68,17.74-26.81,26.3-8.68,8.13-17.33,16.38-26.7,23.66-10.21,7.93-21.26,14.75-31.86,22.18-1.55,1.08-2.41,3.13-3.96,4.23-1.86,1.32-5.17,3.51-6.02,2.88-5.2-3.89-9.64-8.78-14.8-12.72-3.69-2.82-8.49-4.2-12.16-7.05-10.79-8.4-21.74-16.69-31.74-25.98-15.88-14.76-31.38-29.98-46.4-45.61-10.64-11.08-20.5-22.96-30.19-34.9-7.43-9.16-14.22-18.85-20.91-28.57-2.04-2.96-2.85-6.77-4.11-10.23-.33-.91,.01-2.69-.42-2.85-11.91-4.57-6.44-17.4-11.82-25.31-2.24-3.3-1.42-10.24,.43-14.46,5.01-11.38,10.65-22.62,17.34-33.08,5.34-8.36,12.93-15.26,18.9-23.27,6.54-8.77,12.45-18.02,18.5-27.15,6.59-9.95,12.74-20.2,19.65-29.92,5.34-7.5,11.82-14.19,17.31-21.59,5.59-7.53,10.65-15.46,15.76-23.34,.65-1.01,.2-2.73,.26-4.13-1.87,.08-4.2-.53-5.52,.36-9.2,6.21-18.2,12.72-27.25,19.15-11.34,8.06-22.75,16.02-33.98,24.24-13.61,9.96-26.76,20.59-40.68,30.1-10.97,7.49-22.63,14.04-34.32,20.41-8.05,4.39-17.03,7.12-24.95,11.7-13.13,7.59-22.42-2.02-32.53-6.68-7.2-3.32-13.61-8.52-20.07-13.28-13.88-10.25-28.43-19.82-41.15-31.37-19.51-17.72-38-36.59-56.33-55.56-9.78-10.11-18.36-21.39-27.37-32.23-5.68-6.83-12.24-13.26-16.34-20.97-2.54-4.78-3.9-13.67-1.2-17.18,17.42-22.67,34.67-45.8,54.74-66.05,26.61-26.85,50.36-57.28,85.19-75.1,7.41-3.79,13.68-9.92,20.23-15.27,18.67-15.25,38.09-12.87,56.63-.97,22.51,14.46,44.45,29.89,65.98,45.79,19.18,14.17,37.39,29.66,56.17,44.39,13.9,10.9,27.99,21.57,42.12,32.17,1.17,.88,3.36,.41,5.08,.56-.53-2.07-.45-4.65-1.69-6.14-7.43-9.02-15.37-17.62-22.74-26.68-10.93-13.43-21.69-27.01-32.21-40.77-4.55-5.95-8.1-12.67-12.48-18.76-3.05-4.24-6.89-7.9-10.14-12.01-7.62-9.65-16.52-18.65-22.25-29.34-5.96-11.14-18.89-17-20.35-32.4-.58-6.1-4.92-15.64-8.97-22.13-9.64-15.46-1.41-27.27,5.62-38.67,9.94-16.13,21.36-31.47,33.33-46.19,8.8-10.82,19.57-20.02,29.31-30.08,7.39-7.64,14.37-15.68,21.87-23.21,6.01-6.03,12.38-11.74,18.87-17.25,15.61-13.28,31.35-26.42,47.14-39.49,4.44-3.68,9.03-9.27,13.93-9.71,5.12-.45,11.28,3.46,15.97,6.87,9.72,7.06,19.05,14.72,28.01,22.73,11.08,9.91,21.61,20.44,32.42,30.65,7.22,6.82,14.71,13.37,21.72,20.39,4.84,4.85,8.91,10.47,13.63,15.44,3.81,4.01,8.36,7.33,12.1,11.41,7.31,7.96,14.5,16.04,21.3,24.43,4.92,6.07,9.75,12.37,13.52,19.17,5.11,9.22,9.16,19.02,13.65,28.58,.13,.28-.06,.77,.12,.97,15.06,17.6,1.47,30.88-7.01,44.67-5.13,8.35-11.51,15.93-16.82,24.17-3.95,6.13-6.45,13.25-10.76,19.08-8.1,10.98-17.46,21.03-25.51,32.05-9.39,12.84-17.98,26.26-26.82,39.49-6.41,9.6-12.69,19.28-18.96,28.97-.53,.82-.55,1.97-.81,2.96,1.27-.04,2.82,.39,3.77-.18,6.27-3.76,12.61-7.45,18.56-11.68,18.47-13.14,36.92-26.34,55.11-39.86,19.11-14.2,37.91-28.81,56.89-43.19,1.7-1.28,3.69-2.19,5.58-3.21,6-3.23,11.7-7.89,18.11-9.29,8.94-1.95,19.08-3.8,27.5-1.43,12.07,3.41,24,9.33,34.26,16.61,14.92,10.58,28.37,23.24,42.3,35.2,9.73,8.35,19.57,16.63,28.69,25.62,12.18,12.01,23.99,24.43,35.44,37.14,12.33,13.68,24.29,27.71,35.87,42.02,2.56,3.17,2.84,8.19,4.86,14.5-2.64,3.53-5.66,7.3-8.39,11.26Z"/>
      <path d="M597.23,600.45c.14,.23,.35,.42,.54,.62,.16-.22,.33-.44,.51-.7-.3-.11-.55-.23-.82-.29-.06-.01-.27,.3-.23,.36Z"/>
    </g>
  </g>
</svg>