<?xml version="1.0" encoding="UTF-8"?>
<svg id="Layer_2" data-name="Layer 2" xmlns="http://www.w3.org/2000/svg" viewBox="0 0 1116.33 1113.03">
  <defs>
    <style>
      .cls-1 {
        fill: #fff;
      }
    </style>
  </defs>
  <g id="Layer_1-2" data-name="Layer 1">
    <g>
      <path d="M175.6,122.5c11.03,0,22.16-.89,33.06,.28,8.69,.93,17.11,4.42,25.67,6.68,13.33,3.52,26.72,6.81,39.98,10.55,2.56,.72,4.65,3.1,7,4.65,7.29,4.82,13.1,12.27,24.25,7.35,5.58-2.46,13.14-.22,19.78-.54,10.44-.5,20.86-1.75,31.3-1.91,5.39-.09,11.22,.45,16.11,2.49,11.14,4.65,22.24,2.78,31.26-5.49,26.6-24.4,54.12-47.84,79.98-72.99,17.24-16.76,32.2-35.85,48.32-53.78,5.78-6.43,11.63-12.9,18.2-18.47,1.96-1.67,7.95-1.81,9.56-.17,14.41,14.73,27.84,30.42,42.36,45.04,19.64,19.77,39.86,38.96,60.06,58.15,16.72,15.88,33.66,31.54,50.81,46.95,2.57,2.31,6.96,4.04,10.32,3.76,20.99-1.76,41.88-4.88,62.89-6.02,8.65-.47,18.18,1.34,26.13,4.82,12.76,5.59,21.21,.46,29.15-8.1,12.26-13.22,28.41-15.14,45.05-16.86,15.78-1.63,31.37-6.01,47.12-6.44,9.76-.27,20.43,3.04,29.34,7.47,15.18,7.55,25.93,20.36,31.91,36.36,1.76,4.7,1.57,10.4,1.19,15.56-1.25,16.91-1.77,34.01-4.95,50.58-2.5,13.04-7.94,25.66-13.21,37.97-2.86,6.69-8.69,12.05-12.01,18.61-1.77,3.51-1.89,8.41-1.29,12.46,4.55,30.55,3.66,60.96,.12,91.58-.71,6.17,4.08,14.58,8.86,19.52,37.66,38.88,75.9,77.19,114.03,115.61,7.84,7.9,15.72,15.79,24.01,23.21,7.09,6.36,4.69,11.19-1.2,16.4-18.93,16.72-38.43,32.88-56.45,50.55-18.85,18.48-36.26,38.45-54.28,57.78-10.07,10.8-20.58,21.24-29.89,32.67-3.44,4.23-5.82,10.9-5.55,16.29,1.13,22.19,3.59,44.32,5.26,66.49,.35,4.58,.65,9.84-1.19,13.79-5.81,12.45-1.6,21.61,4.94,32.88,8.09,13.95,12.84,30.2,16.97,45.99,3.99,15.27,6.99,31.2,7.29,46.89,.2,10.46-3.07,22.23-8.42,31.26-9.72,16.41-24.13,28.64-43.18,34.12-1.28,.37-2.62,1.15-3.84,1.01-17.1-2.01-34.25-3.71-51.24-6.43-9.43-1.51-18.49-6.25-27.89-6.87-12.05-.8-19.88-7.4-28.77-13.99-4.78-3.54-12.46-4.23-18.85-4.32-13.21-.19-26.44,.92-39.67,1.4-6.96,.25-13.99,.87-20.89,.28-9.6-.82-19.11-3.53-28.68-3.65-5.71-.07-12.87,1.67-16.97,5.31-28.34,25.13-56.85,50.17-83.7,76.84-20.48,20.34-38.3,43.32-58.14,64.34-2.69,2.85-12.59,3.56-15.17,1.1-21.72-20.72-41.9-43.06-63.78-63.6-17.26-16.2-36.48-30.28-54.41-45.8-11.12-9.62-21.45-20.15-32.12-30.29-5.16-4.9-10.33-9.12-17.93-4.19-1.45,.94-3.85,.59-5.81,.55-12.12-.23-24.25-.27-36.36-.9-12.89-.66-25.74-2.43-38.63-2.64-6.15-.1-13.75,.42-18.29,3.85-23.5,17.71-50.05,23.89-78.77,24.26-9.74,.12-19.47,2.95-29.19,2.84-18.54-.21-30.82-11.64-41.04-25.66-3.28-4.51-6.58-9.15-8.87-14.19-5.18-11.38-5.09-22.18-1.03-34.9,4.27-13.36,2.45-28.63,3.52-43.05,1.16-15.68,8.63-28.47,19.15-39.61,6.16-6.52,7.85-12.88,6.9-22.59-2.47-25.2-3.05-50.69-2.44-76.02,.28-11.72-2.9-19.75-10.7-28.17-23.29-25.15-45.2-51.57-68.48-76.73-22.84-24.68-46.49-48.62-70.28-72.39-5-5-5.15-8.72-.7-12.91,11.63-10.93,24.07-21.03,35.29-32.36,24.51-24.76,48.48-50.05,72.62-75.18,11.63-12.11,22.91-24.56,34.79-36.42,7.25-7.24,8.91-15.09,8.3-25.26-1.38-22.84-2.74-45.93-.78-68.64,1.33-15.48-3.34-26.92-12.13-38.15-1.92-2.45-4.2-5.19-4.73-8.08-5.74-31.66-14.88-63.07-11.62-95.63,1.66-16.51,7.9-31.54,25.34-38.62,8.2-3.33,16.14-7.31,24.19-10.99,.38,.82,.75,1.64,1.13,2.46Z"/>
      <path class="cls-1" d="M774.9,799.4c4.19,21.14-11.8,35.73-20.85,52.96-4.35,8.28-8.69,16.62-13.83,24.41-6.26,9.5-12.63,19.11-20.23,27.51-18.65,20.63-37.17,41.5-57.37,60.55-17.62,16.62-37.43,30.93-56.35,46.16-9.06,7.29-18,14.78-27.53,21.41-6.75,4.7-14,9.26-21.71,11.83-12.9,4.31-21.45-6-30.19-12.43-16.88-12.41-32.81-26.14-48.78-39.75-10.57-9.02-20.6-18.68-30.7-28.24-7.54-7.14-14.89-14.48-22.18-21.89-7.48-7.6-15.07-15.14-22.08-23.16-10.36-11.85-20.51-23.91-30.24-36.28-4.57-5.8-8.05-12.48-11.83-18.87-3.63-6.13-7.38-12.22-10.39-18.66-2.9-6.19-4.97-12.77-7.29-19.22-2.73-7.56-6.01-15.02-7.77-22.81-1.29-5.73,.12-12.05-.98-17.86-.47-2.44-4.03-5.49-6.7-6.11-14.35-3.37-29.32-4.69-43.19-9.36-14.46-4.88-28.97-11.19-41.55-19.7-16.91-11.44-32.37-25.16-47.76-38.69-13.75-12.09-26.92-24.9-39.69-38.03-9.94-10.23-18.87-21.44-28.27-32.2-10.62-12.14-21.67-23.93-31.79-36.48-9.49-11.78-18.75-23.9-26.45-36.86-2.08-3.5,1.09-10.92,3.26-15.94,2.45-5.65,6.19-10.84,9.9-15.84,10.17-13.73,20.37-27.45,31.01-40.81,10.58-13.28,21.28-26.52,32.73-39.05,12.83-14.03,25.91-27.96,40.08-40.59,16.22-14.45,33.43-27.85,50.88-40.81,7.37-5.47,16.56-8.44,24.69-12.96,10-5.56,19.16-13.31,29.77-16.87,10.96-3.68,23.25-4.73,34.91-4.45,6.35,.15,8.79-.56,8.94-6.47,.16-6.49,.27-13.01-.24-19.47-1.17-14.77,6.92-25.53,14.68-36.74,4.12-5.96,6.64-13.01,10.19-19.4,3.62-6.52,7.1-13.21,11.53-19.18,11.31-15.25,22.28-30.89,34.96-44.96,12.57-13.95,26.58-26.73,40.83-39.01,21.36-18.4,43.14-36.36,65.41-53.65,13.22-10.26,27.03-20.34,42.03-27.43,4.98-2.35,15.57,3.4,21.69,7.98,15.73,11.78,30.3,25.1,45.51,37.6,12.31,10.11,25.17,19.56,37.2,29.98,7.59,6.58,13.93,14.58,21.13,21.63,7.18,7.03,15.12,13.32,22.01,20.61,6.58,6.95,12.34,14.68,18.28,22.21,8.62,10.93,17.4,21.75,25.47,33.07,4.25,5.96,7.65,12.66,10.54,19.41,3.97,9.29,5.23,20.32,11.01,28.11,9.17,12.38,6.57,25.72,7.94,38.93,.18,1.75,4.5,4.81,6.18,4.39,16.51-4.17,29.63,6.58,44.13,10.29,13.57,3.47,26.84,10.42,38.52,18.36,16.67,11.32,31.85,24.85,47.5,37.64,8.15,6.66,16.24,13.44,23.79,20.76,7.24,7.02,13.72,14.82,20.55,22.26,6.17,6.72,12.53,13.28,18.53,20.15,8.1,9.27,16.05,18.68,23.85,28.2,10.69,13.04,21.51,26,31.65,39.46,5.82,7.74,15.31,14.73,11.35,26.3-2.27,6.63-6.1,12.99-10.36,18.62-16.65,22.02-33.16,44.19-50.87,65.34-11.77,14.05-25.44,26.52-38.33,39.62-9.46,9.62-18.6,19.63-28.69,28.55-8.62,7.62-18.38,13.94-27.64,20.83-3.94,2.92-7.75,6.05-11.88,8.67-11.63,7.35-23.35,14.56-35.11,21.68-17.27,10.46-35.35,17.16-56.17,13.29-2.11-.39-6.6,3.33-7.28,5.86-1.21,4.5-.34,9.57-.34,15.57Z"/>
      <path class="cls-1" d="M872.02,913.25c-1.99,7.74,4.86,8.02,10.35,12.18,14.26,10.78,30.54,1.3,44.64,7.7,2.11,.96,5.95-.43,8.22-1.92,1.17-.77,1.1-4.21,.78-6.32-2.18-14.51-5.05-28.94-6.69-43.51-.68-6.05-2.45-7.59-8.47-8.69-10.06-1.84-19.79-5.69-29.46-9.23-1.05-.39-1.43-4.41-1.03-6.55,.5-2.67,2.5-5.04,3.22-7.7,3.78-14.09,4.7-29.76,11.73-41.93,7.3-12.66,1.93-24.8,5.02-36.42,1.97-7.4,8.96-13.47,13.69-20.14,2.29,2.11,6.57,4.23,6.56,6.32-.09,18.26-.34,36.56-1.82,54.75-.76,9.34-4.54,18.41-6.06,27.74-.41,2.54,1.73,6.43,3.91,8.26,3.39,2.85,7.85,4.42,11.8,6.63,12.47,7,16.16,18.92,17.28,31.95,.78,9.11,.31,18.33,1.24,27.42,.38,3.77,2.93,7.32,4.52,10.96,.71,1.64,1.93,3.2,2.14,4.9,1.02,8.09-10.83,27.1-18.8,27.56-11.45,.66-23.04-1.02-34.57-1.8-1.45-.1-2.83-1.05-4.29-1.24-10.89-1.42-21.79-2.8-32.7-4.08-12.24-1.43-19.31-8.64-21.41-20.36-.43-2.4-5.05-6.07-7.33-5.8-19.91,2.4-39.67,6.14-59.61,8.23-8.71,.92-17.84-.43-26.52-2.09-2.8-.53-5.32-5.09-6.83-8.34-.49-1.05,2.87-3.67,4.13-5.78,7.87-13.19,19.65-9.38,32.12-10.12,17.82-1.05,35.48-7.77,52.83-13.24,25.61-8.07,31.64-2.55,31.4,20.65Z"/>
      <path class="cls-1" d="M185.53,339.78c2.87-11.06,6.44-22,8.42-33.22,1.99-11.23,2.54-22.73,3.35-34.14,.1-1.42-1.81-3.62-3.33-4.4-5.58-2.88-11.69-4.83-16.98-8.12-2.62-1.63-4.31-5.23-5.7-8.27-8.48-18.57-4.96-39.53-10.35-58.09-4.73-16.28,.62-24.51,11.15-33.42,5.99-5.06,20.42-4.4,26.12,.9,1.86,1.73,4.99,2.68,7.63,2.9,12.18,1.02,24.39,1.87,36.61,2.38,12.68,.53,21.45,7.74,23.58,20,1.79,10.35,10.85,13.64,19.57,7.95,2.89-1.89,7.65-.65,11.39-1.55,10.47-2.53,20.84-5.51,31.29-8.12,2.17-.54,4.68-.84,6.78-.29,7.34,1.9,14.69,3.91,21.76,6.61,1.72,.66,3.93,4.86,3.29,6.15-6.23,12.74-23.37,18.91-37.08,14.12-2.4-.84-5.59-1.26-7.82-.37-10.47,4.16-20.66,9-31.09,13.27-7.1,2.91-14.34,5.54-21.69,7.71-1.29,.38-4.37-1.71-5.02-3.32-3.9-9.56-7.07-19.42-11.07-28.93-1.2-2.85-3.9-6.41-6.56-7.08-17.13-4.32-34.38-8.45-52.26-7.76-1.42,.05-4.06,1.9-3.96,2.6,1.43,9.89,3.25,19.73,4.95,29.58,.11,.65,.04,1.33,.12,1.99,.88,7.02-.74,17.22,3.22,20.36,7.35,5.82,17.73,8.67,27.29,10.65,12.19,2.53,16.24,12.91,10.27,24.15-8.25,15.52-18.21,31.06-14.92,50.15,2.99,17.34-4.09,29.3-19.52,36.58-1.33,.63-5.74-1.6-6.01-3.02-1.08-5.68-1.09-11.56-1.5-17.36-.64-.2-1.28-.39-1.92-.59Z"/>
      <path class="cls-1" d="M906.08,329.61c-.89-9.52-.98-19.21-2.86-28.54-2.74-13.6-6.24-27.11-10.47-40.32-2.29-7.16,1.24-8.12,6.36-9.56,7.98-2.25,16.1-4.35,23.59-7.76,2.92-1.33,5.7-5.85,6.14-9.23,1.57-12.01,2.13-24.16,3.02-36.26,.77-10.45-3.05-12.24-12.97-10.04-12.37,2.73-25.35,2.6-37.87,4.79-3.43,.6-7.13,4.55-8.99,7.92-1.8,3.27-1.85,7.75-1.89,11.71-.19,21.25-7.6,18.95-24.92,14.11-12.73-3.55-27.37-3.87-37.93-10.66-14.22-9.15-30.1,1.73-42.78-7.32-4.95-3.53-8.96-8.77-12.36-13.91-1.3-1.97,.28-5.85,.55-8.86,2.56,.64,5.09,1.64,7.68,1.85,12.55,1.02,25.14,1.53,37.66,2.8,13.21,1.34,26.82-1.86,39.28,7.28,7.64,5.61,13.52,.94,15.67-8.39,2.21-9.62,7.07-16.67,18.69-17.23,5.08-.24,9.9-3.97,15.01-5.56,21.08-6.55,42.46-6.28,63.92-2.18,1.31,.25,3.33,1.47,3.48,2.46,1.61,11.17,10.28,20.1,5.06,33.83-6.34,16.65-6.6,35.51-11.63,52.8-1.68,5.79-9.62,10.08-15.28,14.28-2.8,2.08-9.87,2.24-9.93,3.51-.25,5.32,1.06,10.83,2.5,16.08,1.02,3.72,4.38,7.07,4.57,10.71,1.04,19.1,1.61,38.23,1.83,57.36,.04,3.39-2.35,6.8-3.61,10.21-4.07-1.94-10.03-2.8-11.86-6.02-5.17-9.1-8.66-19.16-12.81-28.85,1.05-.33,2.1-.66,3.15-.99Z"/>
      <path class="cls-1" d="M159.73,921.26c4.14-18.36,7.37-37.01,12.98-54.91,1.65-5.25,10.16-8.26,15.34-12.52,3.58-2.94,9.37-5.98,9.72-9.44,.68-6.65-.35-14.31-3.23-20.33-9.48-19.82-7.02-40.88-5.47-61.08,.86-11.14,9.8-.82,12.77,1.35,8.52,6.25,12.9,14.32,12.36,26.55-.51,11.61,4.71,23.45,7.29,35.21,.88,4.04,1.09,8.24,2.15,12.23,1.04,3.9,2.97,7.55,4.18,11.42,1.32,4.23,4.21,9.41,2.83,12.66-1.44,3.41-6.85,6.11-11.02,7.19-8.31,2.15-17.04,2.61-25.4,4.61-1.93,.46-4.21,4.2-4.38,6.57-1.08,15.41-1.83,30.85-2.03,46.29-.02,1.75,4.07,5.12,6.18,5.06,11.25-.33,22.64-.67,33.66-2.72,6.34-1.18,13.85-4.17,17.66-8.9,5.17-6.42,7.26-15.31,10.73-23.11,1.25-2.8,2.67-7.82,4.04-7.83,4.3-.03,8.67,1.68,12.91,3.05,2.25,.73,4.16,2.56,6.42,3.19,10.45,2.9,20.87,6.01,31.49,8.14,7.1,1.42,14.5,1.61,21.79,1.85,10.98,.36,24.74,10.47,26.91,21.08,.35,1.7-3.41,6.07-5.28,6.07-10.42,.04-21.05,.22-31.21-1.74-14.57-2.81-28.65-8.21-43.25-10.69-3.57-.61-10.82,5.05-12.12,9.17-4.6,14.61-10.37,19.34-25.71,20.18-7.33,.4-15.08,2.36-21.66,5.61-14.19,7-42.95,5.65-53.73-4.06-1.99-1.79-3.62-4.94-3.8-7.58-.51-7.28-.18-14.63-.18-21.95l-2.96-.63Z"/>
      <path class="cls-1" d="M306,850.67c-.6,.86-1.06,2.22-1.69,2.3-1.86,.23-4.54,.75-5.55-.23-10.68-10.37-21.2-20.91-31.43-31.72-1.09-1.15-.02-4.34,.04-6.59,2.1,.49,4.91,.27,6.18,1.57,10.44,10.69,20.6,21.66,30.83,32.56,.55,.59,.98,1.28,1.61,2.11Z"/>
      <path class="cls-1" d="M823.5,267.14c7.17,6.29,14.96,12.36,21.71,19.42,3,3.14,3.92,8.29,5.78,12.52-3.75-2-8.04-3.38-11.13-6.12-6.97-6.17-13.39-12.98-19.89-19.65-.75-.76-1.05-2.49-.76-3.55,.2-.75,1.75-1.14,4.3-2.62Z"/>
      <path class="cls-1" d="M830.94,843.16c-.74-1.88-1.75-3.67-1.49-3.88,3.27-2.64,6.71-5.08,10.22-7.4,.13-.09,1.38,1.5,2.11,2.3-3.37,2.79-6.73,5.58-10.84,8.98Z"/>
      <path class="cls-1" d="M859.12,305.79c-1.04,.83-1.95,1.99-2.39,1.83-.85-.31-1.44-1.35-2.14-2.09,.69-.57,1.38-1.59,2.07-1.59,.7,0,1.41,1.01,2.46,1.86Z"/>
      <path d="M748.93,333.18c-2.48,4.31-5.15,8.98-7.84,13.63-.25,.43-.96,.85-.89,1.15,3.29,15.35-13.24,21.68-15.54,34.38-.41,2.25,.8,6.86,1.45,6.9,4.09,.23,9.81,1.06,12.12-1.22,14.83-14.62,33.11-18.12,52.65-17.57,10.61,.3,21.61,.45,31.64,3.39,8.14,2.38,15.1,8.8,22.56,13.47,1.79,1.12,3.46,2.43,5.2,3.63,6.16,4.25,12.33,8.5,18.5,12.74,7.07,4.85,14.15,9.71,21.25,14.52,.52,.35,1.45,.16,1.88,.56,9.22,8.67,18.55,17.23,27.54,26.15,7.53,7.47,14.89,15.13,21.84,23.14,4.58,5.27,8.16,11.4,12.43,16.96,3.38,4.4,6.95,8.67,10.73,12.72,10.15,10.89,20.74,21.4,30.56,32.57,3.9,4.43,6.09,10.33,9.36,15.37,1.38,2.12,4.46,3.45,5.16,5.64,1.64,5.17,4.97,12.24,2.89,15.71-5.96,9.92-13.98,18.68-21.72,27.42-12.52,14.14-25.21,28.14-38.3,41.75-16.35,17.01-33.1,33.66-49.83,50.31-11.76,11.71-23.45,23.53-35.84,34.55-5.25,4.67-11.97,7.96-18.46,10.89-9.73,4.39-19.55,9.29-29.86,11.47-15.33,3.24-31.14,5.78-46.72,5.63-7.02-.07-13.98-7.32-20.93-11.38-5.46-3.19-10.64-6.99-16.4-9.48-2.49-1.08-8.61-.02-8.78,.87-.77,4.13-1.75,9.93,.44,12.63,15.3,18.91,20.58,40.87,20.83,64.38,.05,4.3-2.86,8.62-4.34,12.95-1.15,3.36-1.93,6.86-3.35,10.09-2.16,4.93-4.71,9.69-7.13,14.5-.44,.87-1.43,1.62-1.51,2.48-1.24,14.3-12.6,21.42-21.32,30.48-9.6,9.98-18.85,20.29-28.42,30.29-9.68,10.11-19.43,20.15-29.4,29.97-8.96,8.83-18.32,17.24-27.38,25.96-12.15,11.69-23.85,23.88-36.4,35.12-7.78,6.97-16.51,12.99-25.38,18.55-2.66,1.66-8.28,1.82-10.7,.09-11.02-7.89-21.61-16.43-31.93-25.24-13.37-11.43-26.38-23.29-39.46-35.05-10.77-9.68-21.54-19.38-32.1-29.29-10.58-9.93-21.39-19.68-31.18-30.36-5.84-6.37-9.48-14.7-14.86-21.55-6.41-8.15-15.06-14.84-20.14-23.66-6.46-11.23-11.54-23.63-14.9-36.14-2.88-10.76-4.82-22.8-2.93-33.53,1.9-10.82,8.94-20.76,13.91-31,2.84-5.86,6.43-11.39,8.84-17.41,.66-1.66-1.14-5.32-2.88-6.59-1.27-.93-4.59,.02-6.5,1.05-11.45,6.16-22.66,12.77-34.19,18.76-2.73,1.42-6.38,1.33-9.62,1.47-8.13,.35-16.35-.21-24.4,.76-13.79,1.67-23.7-6.04-34.29-12.57-6.71-4.14-14.05-7.37-20.42-11.95-8.75-6.3-16.86-13.49-25.24-20.31-12.55-10.2-25.33-20.13-37.51-30.76-5.06-4.41-8.78-10.33-13.17-15.52-10.64-12.59-21.12-25.32-32.03-37.67-10.12-11.46-20.74-22.48-31.11-33.73-6.19-6.72-12.93-13.08-18.17-20.48-2.06-2.91-2.38-9.21-.6-12.27,4.08-6.99,9.7-13.16,15.15-19.26,12.1-13.56,24.45-26.9,36.76-40.27,4.04-4.39,8.18-8.68,12.39-12.89,16.32-16.34,32.62-32.71,49.06-48.92,13.17-12.98,26.24-26.09,39.97-38.45,5.09-4.58,11.78-7.52,18.05-10.58,7.3-3.57,14.69-8.21,22.48-9.29,15.73-2.18,31.81-3.5,47.62-2.68,7.22,.38,14.12,6.68,21.17,10.29,7.11,3.65,14.12,7.51,21.42,10.73,1.2,.53,5.18-1.71,5.26-2.86,.34-4.39,.83-9.45-.98-13.17-4.2-8.62-8.81-17.35-14.88-24.69-10.09-12.19-6.76-26.11-6.23-39.37,.3-7.48,5.14-14.68,7.09-22.22,3.89-15.06,11.11-28.18,21.82-39.32,14.91-15.52,29.89-30.97,45.08-46.21,15.96-16,32.27-31.65,48.29-47.59,13.73-13.65,26.67-28.15,41.12-40.97,7.59-6.73,17.63-10.73,26.71-15.7,.89-.49,2.98,.73,4.26,1.55,6.74,4.32,13.67,8.42,20.01,13.27,5.15,3.95,9.52,8.92,14.32,13.35,7.32,6.74,14.68,13.43,22.07,20.09,6.35,5.72,12.64,11.53,19.2,17.01,7.08,5.91,14.72,11.16,21.59,17.3,5.54,4.95,10.19,10.9,15.43,16.2,6.69,6.76,13.78,13.12,20.33,20.02,4.27,4.5,7.87,9.63,11.78,14.48,8.12,10.05,16.3,20.03,24.28,30.18,1.12,1.42,.98,3.77,1.89,5.44,1.89,3.47,4.04,6.8,6.18,10.12,.6,.94,2.04,1.54,2.26,2.48,3.72,16.56,7.32,33.15,11.35,51.61Z"/>
      <path class="cls-1" d="M985.65,559.7c-2.64,3.53-5.66,7.3-8.39,11.26-6.08,8.82-11.4,18.26-18.18,26.5-9.4,11.44-19.7,22.15-29.9,32.91-13.39,14.14-26.58,28.51-40.73,41.86-12.08,11.39-25.14,21.79-38.24,32.03-9.88,7.73-20.73,14.21-30.74,21.79-10.45,7.91-27.7,9.47-39.64,3.23-11.58-6.05-24.32-10.36-34.85-17.83-18.02-12.79-34.43-27.82-52.05-41.21-18.27-13.87-37.36-26.66-55.72-40.41-9.73-7.28-18.65-15.64-28.03-23.41-.97-.81-2.56-.87-3.86-1.28-.44,2.28-2.05,5.4-1.12,6.71,4.3,5.99,9.58,11.27,13.99,17.19,7.34,9.85,14.02,20.19,21.46,29.96,6.89,9.05,14.66,17.42,21.6,26.43,11.83,15.36,23.48,30.86,34.88,46.54,9.25,12.71,19.3,25.1,26.59,38.9,5.45,10.33,10.79,23.16,9.37,33.99-1.45,11.08-10.92,21.24-17.4,31.47-4.41,6.95-9.62,13.41-14.68,19.93-7.26,9.36-14.38,18.87-22.17,27.78-9.27,10.6-19.05,20.77-28.87,30.86-8.73,8.97-17.68,17.74-26.81,26.3-8.68,8.13-17.33,16.38-26.7,23.66-10.21,7.93-21.26,14.75-31.86,22.18-1.55,1.08-2.41,3.13-3.96,4.23-1.86,1.32-5.17,3.51-6.02,2.88-5.2-3.89-9.64-8.78-14.8-12.72-3.69-2.82-8.49-4.2-12.16-7.05-10.79-8.4-21.74-16.69-31.74-25.98-15.88-14.76-31.38-29.98-46.4-45.61-10.64-11.08-20.5-22.96-30.19-34.9-7.43-9.16-14.22-18.85-20.91-28.57-2.04-2.96-2.85-6.77-4.11-10.23-.33-.91,.01-2.69-.42-2.85-11.91-4.57-6.44-17.4-11.82-25.31-2.24-3.3-1.42-10.24,.43-14.46,5.01-11.38,10.65-22.62,17.34-33.08,5.34-8.36,12.93-15.26,18.9-23.27,6.54-8.77,12.45-18.02,18.5-27.15,6.59-9.95,12.74-20.2,19.65-29.92,5.34-7.5,11.82-14.19,17.31-21.59,5.59-7.53,10.65-15.46,15.76-23.34,.65-1.01,.2-2.73,.26-4.13-1.87,.08-4.2-.53-5.52,.36-9.2,6.21-18.2,12.72-27.25,19.15-11.34,8.06-22.75,16.02-33.98,24.24-13.61,9.96-26.76,20.59-40.68,30.1-10.97,7.49-22.63,14.04-34.32,20.41-8.05,4.39-17.03,7.12-24.95,11.7-13.13,7.59-22.42-2.02-32.53-6.68-7.2-3.32-13.61-8.52-20.07-13.28-13.88-10.25-28.43-19.82-41.15-31.37-19.51-17.72-38-36.59-56.33-55.56-9.78-10.11-18.36-21.39-27.37-32.23-5.68-6.83-12.24-13.26-16.34-20.97-2.54-4.78-3.9-13.67-1.2-17.18,17.42-22.67,34.67-45.8,54.74-66.05,26.61-26.85,50.36-57.28,85.19-75.1,7.41-3.79,13.68-9.92,20.23-15.27,18.67-15.25,38.09-12.87,56.63-.97,22.51,14.46,44.45,29.89,65.98,45.79,19.18,14.17,37.39,29.66,56.17,44.39,13.9,10.9,27.99,21.57,42.12,32.17,1.17,.88,3.36,.41,5.08,.56-.53-2.07-.45-4.65-1.69-6.14-7.43-9.02-15.37-17.62-22.74-26.68-10.93-13.43-21.69-27.01-32.21-40.77-4.55-5.95-8.1-12.67-12.48-18.76-3.05-4.24-6.89-7.9-10.14-12.01-7.62-9.65-16.52-18.65-22.25-29.34-5.96-11.14-18.89-17-20.35-32.4-.58-6.1-4.92-15.64-8.97-22.13-9.64-15.46-1.41-27.27,5.62-38.67,9.94-16.13,21.36-31.47,33.33-46.19,8.8-10.82,19.57-20.02,29.31-30.08,7.39-7.64,14.37-15.68,21.87-23.21,6.01-6.03,12.38-11.74,18.87-17.25,15.61-13.28,31.35-26.42,47.14-39.49,4.44-3.68,9.03-9.27,13.93-9.71,5.12-.45,11.28,3.46,15.97,6.87,9.72,7.06,19.05,14.72,28.01,22.73,11.08,9.91,21.61,20.44,32.42,30.65,7.22,6.82,14.71,13.37,21.72,20.39,4.84,4.85,8.91,10.47,13.63,15.44,3.81,4.01,8.36,7.33,12.1,11.41,7.31,7.96,14.5,16.04,21.3,24.43,4.92,6.07,9.75,12.37,13.52,19.17,5.11,9.22,9.16,19.02,13.65,28.58,.13,.28-.06,.77,.12,.97,15.06,17.6,1.47,30.88-7.01,44.67-5.13,8.35-11.51,15.93-16.82,24.17-3.95,6.13-6.45,13.25-10.76,19.08-8.1,10.98-17.46,21.03-25.51,32.05-9.39,12.84-17.98,26.26-26.82,39.49-6.41,9.6-12.69,19.28-18.96,28.97-.53,.82-.55,1.97-.81,2.96,1.27-.04,2.82,.39,3.77-.18,6.27-3.76,12.61-7.45,18.56-11.68,18.47-13.14,36.92-26.34,55.11-39.86,19.11-14.2,37.91-28.81,56.89-43.19,1.7-1.28,3.69-2.19,5.58-3.21,6-3.23,11.7-7.89,18.11-9.29,8.94-1.95,19.08-3.8,27.5-1.43,12.07,3.41,24,9.33,34.26,16.61,14.92,10.58,28.37,23.24,42.3,35.2,9.73,8.35,19.57,16.63,28.69,25.62,12.18,12.01,23.99,24.43,35.44,37.14,12.33,13.68,24.29,27.71,35.87,42.02,2.56,3.17,2.84,8.19,4.86,14.5Z"/>
      <path d="M598.28,600.38c-.19,.25-.35,.47-.51,.7-.19-.2-.4-.39-.54-.62-.03-.06,.18-.37,.23-.36,.27,.05,.53,.18,.82,.29Z"/>
      <g>
        <path class="cls-1" d="M847.09,294.71c.93,1.09,1.35,2.62,1.1,4.03-3.2-4.64-7.07-8.81-11.46-12.35-.85,5.5,2.43,11.37,7.56,13.53-2.01-7.36-6.71-13.95-13.01-18.26"/>
        <path class="cls-1" d="M846.03,295.77c.56,.69,.84,1.69,.71,2.57l2.74-.36c-3.29-4.75-7.21-9.01-11.7-12.65-.76-.61-2.33-.58-2.51,.66-.89,6.19,2.42,12.69,8.25,15.22,1.14,.49,2.58-.32,2.2-1.69-2.16-7.78-7.06-14.58-13.7-19.15-1.59-1.1-3.1,1.5-1.51,2.59,5.99,4.13,10.37,10.36,12.32,17.36l2.2-1.69c-4.49-1.95-7.57-6.89-6.87-11.83l-2.51,.66c4.29,3.47,8.08,7.51,11.23,12.04,.64,.93,2.54,1.04,2.74-.36,.3-2.06-.18-3.87-1.48-5.49-.51-.63-1.59-.53-2.12,0-.63,.63-.51,1.49,0,2.12h0Z"/>
      </g>
      <g>
        <path d="M814.98,285.44c11.21,7.97,23.01,15.09,35.29,21.29-2.03-13.09-10.87-24.93-22.85-30.59,4.82,8.02,11.66,14.81,19.72,19.56-7.6-20.18-21.56-37.91-39.38-50.04-6.63,16.01-2.22,35.94,10.55,47.66,.63-7.98-1-16.13-4.65-23.25,3.52,4.45,7.04,8.9,10.56,13.35,1.26-3.72,.42-8.09-2.15-11.07,2.92,5.27,5.84,10.54,8.76,15.81-.09-7.14-3.09-14.2-8.17-19.22,2.25,8.6,7.23,16.47,14.04,22.19-5.09-11.39-12.75-21.63-22.24-29.72,.13,13.6,6.19,27.04,16.29,36.15-.2-4.04-.4-8.08-.6-12.11,4.68,4.4,9.36,8.81,14.03,13.21-1.67-6.13-3.34-12.27-5.01-18.4,4.65,11.12,12.38,20.94,22.09,28.09-12.68-27.47-38.7-46.55-65.97-59.65,18.81,29.12,44.57,53.71,74.53,71.14-5.85-18.18-14.98-35.3-26.83-50.27,5.07,14.49,14.4,27.45,26.52,36.87,2.05-2.71,.17-6.56-1.83-9.32-7.44-10.27-16.5-19.36-26.75-26.84-2.93,4.59-2.94,10.88-.03,15.48,.77-7.93-1.72-16.12-6.77-22.28-1.19,8.02,.4,16.43,4.43,23.46,.38-6.81-1.45-13.72-5.15-19.45-1.28,3.57-.82,7.72,1.2,10.93,1.53-4.92-1.28-10.79-6.08-12.67-1.77,2.18-2.07,5.43-.75,7.89,4.57,3.2,7.87,8.18,9.04,13.64,3.73-3.59,.57-10.71-4.46-11.94s-10.22,1.81-13.59,5.75c-2.2-8.77-3.24-17.82-3.1-26.86-1.53,5.52-2.97,11.79,.02,16.68s12.38,4.94,13.13-.74"/>
        <path d="M814.23,286.74c11.22,7.96,23.01,15.08,35.29,21.29,1.24,.63,2.41-.4,2.2-1.69-2.16-13.49-11.22-25.59-23.54-31.49-1.28-.61-2.88,.68-2.05,2.05,4.99,8.25,11.97,15.17,20.26,20.1,1.05,.62,2.68-.43,2.2-1.69-6.06-16-15.92-30.49-28.63-41.96-3.6-3.25-7.43-6.25-11.44-8.98-.88-.6-1.87,.07-2.2,.9-5.26,12.89-3.68,28.16,3.51,40.01,2.04,3.36,4.54,6.44,7.42,9.11,.99,.92,2.47,.23,2.56-1.06,.61-8.29-1.11-16.59-4.86-24.01l-2.36,1.82c3.52,4.45,7.04,8.9,10.56,13.35,.74,.94,2.2,.3,2.51-.66,1.39-4.35,.36-9.04-2.53-12.53-1.12-1.35-3.16,.37-2.36,1.82,2.92,5.27,5.84,10.54,8.76,15.81,.72,1.3,2.82,.72,2.8-.76-.15-7.59-3.24-14.9-8.61-20.28-1.06-1.07-2.89,.02-2.51,1.46,2.36,8.87,7.42,16.92,14.43,22.85,1.33,1.13,3.06-.26,2.36-1.82-5.17-11.51-12.89-21.82-22.48-30.03-.94-.81-2.58-.32-2.56,1.06,.2,14.04,6.33,27.75,16.73,37.21,.91,.82,2.63,.3,2.56-1.06-.2-4.04-.4-8.08-.6-12.11l-2.56,1.06c4.68,4.4,9.36,8.81,14.03,13.21,1.08,1.01,2.91,.02,2.51-1.46-1.67-6.13-3.34-12.27-5.01-18.4l-2.89,.8c4.87,11.54,12.71,21.53,22.78,28.98,1.34,.99,2.61-.86,2.05-2.05-10.07-21.7-28.42-38.23-48.57-50.5-5.81-3.54-11.81-6.74-17.94-9.69-1.25-.6-2.93,.69-2.05,2.05,14.79,22.84,33.73,42.88,55.67,58.97,6.24,4.57,12.71,8.81,19.4,12.71,1.09,.64,2.61-.43,2.2-1.69-4.63-14.34-11.24-28.05-19.64-40.56-2.39-3.56-4.92-7.01-7.58-10.37-.93-1.18-2.99,.1-2.51,1.46,5.21,14.75,14.57,27.9,26.91,37.53,.8,.62,1.76,.56,2.36-.3,2.33-3.36,.46-7.55-1.61-10.52-2.49-3.57-5.29-6.96-8.18-10.21-5.8-6.5-12.3-12.33-19.32-17.48-.67-.49-1.66-.09-2.05,.54-3.18,5.14-3.19,11.84-.03,17,.82,1.34,2.67,.68,2.8-.76,.75-8.41-1.92-16.79-7.21-23.34-.67-.83-2.35-.42-2.51,.66-1.21,8.5,.35,17.13,4.58,24.62,.76,1.35,2.72,.68,2.8-.76,.35-7.11-1.54-14.21-5.36-20.21-.71-1.12-2.32-.87-2.74,.36-1.37,4.02-.85,8.46,1.35,12.08,.67,1.11,2.38,.89,2.74-.36,1.71-5.88-1.54-12.2-7.12-14.51-.66-.27-1.32,.2-1.69,.69-1.27,1.65-1.9,3.79-1.75,5.87,.07,1.06,.33,2.08,.77,3.05,.48,1.06,1.6,1.61,2.45,2.37,3.38,3.01,5.68,6.99,6.67,11.4,.25,1.11,1.74,1.44,2.51,.66,3.98-4.05,1.65-10.74-2.75-13.44-5.96-3.66-13.39,.52-17.41,5.13l2.51,.66c-2.15-8.66-3.17-17.54-3.04-26.46,.02-1.7-2.5-2.03-2.95-.4-1.78,6.44-3.93,16.48,3.11,20.69,4.25,2.54,12,1.98,12.93-3.96,.3-1.89-2.59-2.7-2.89-.8-.65,4.13-6.31,3.78-8.96,1.88-2.22-1.58-2.91-4.64-2.96-7.21-.07-3.34,.79-6.61,1.67-9.81l-2.95-.4c-.13,9.18,.94,18.35,3.15,27.26,.26,1.05,1.76,1.51,2.51,.66,3.01-3.45,8.51-7.29,13.27-4.95,3.03,1.49,5.39,6.23,2.65,9.02l2.51,.66c-.91-4.07-2.87-7.84-5.65-10.94-.69-.77-1.44-1.5-2.23-2.17-.38-.32-.87-.6-1.22-.96-.32-.34-.33-.37-.48-.91-.55-1.91-.05-3.84,1.14-5.39l-1.69,.69c4.09,1.69,6.24,6.65,5.03,10.82l2.74-.36c-1.82-2.98-2.17-6.47-1.05-9.77l-2.74,.36c3.56,5.59,5.27,12.07,4.95,18.69l2.8-.76c-3.8-6.73-5.37-14.64-4.28-22.31l-2.51,.66c4.8,5.94,7.01,13.64,6.33,21.22l2.8-.76c-2.62-4.27-2.61-9.7,.03-13.97l-2.05,.54c6.35,4.65,12.23,9.93,17.56,15.73,2.64,2.88,5.15,5.88,7.5,9,1.79,2.38,5.1,6.32,2.98,9.37l2.36-.3c-11.93-9.31-21.1-21.93-26.14-36.21l-2.51,1.46c9.09,11.51,16.6,24.33,22.17,37.91,1.58,3.84,3,7.75,4.28,11.7l2.2-1.69c-23.17-13.51-43.78-31.26-60.63-52.12-4.78-5.92-9.23-12.1-13.36-18.48l-2.05,2.05c20.93,10.08,41.22,23.46,55.32,42.25,3.94,5.26,7.35,10.9,10.12,16.86l2.05-2.05c-9.38-6.94-16.86-16.44-21.4-27.19-.72-1.72-3.42-1.13-2.89,.8,1.67,6.13,3.34,12.27,5.01,18.4l2.51-1.46c-4.68-4.4-9.36-8.81-14.03-13.21-.9-.85-2.63-.29-2.56,1.06,.2,4.04,.4,8.08,.6,12.11l2.56-1.06c-9.82-8.94-15.66-21.8-15.85-35.09l-2.56,1.06c9.41,8.07,16.92,18.11,22.01,29.42l2.36-1.82c-6.64-5.62-11.42-13.12-13.66-21.53l-2.51,1.46c4.81,4.82,7.59,11.35,7.73,18.16l2.8-.76c-2.92-5.27-5.84-10.54-8.76-15.81l-2.36,1.82c2.22,2.67,2.81,6.33,1.76,9.61l2.51-.66c-3.52-4.45-7.04-8.9-10.56-13.35-1.11-1.4-3.08,.38-2.36,1.82,3.52,6.95,5.02,14.73,4.45,22.49l2.56-1.06c-9.63-8.93-14.31-22.4-12.93-35.4,.39-3.71,1.36-7.35,2.77-10.8l-2.2,.9c13.65,9.33,24.96,21.93,32.86,36.45,2.23,4.1,4.18,8.34,5.83,12.7l2.2-1.69c-7.86-4.67-14.45-11.2-19.18-19.02l-2.05,2.05c11.71,5.61,20.11,16.88,22.16,29.69l2.2-1.69c-12.27-6.21-24.07-13.33-35.29-21.29-1.58-1.12-3.08,1.48-1.51,2.59h0Z"/>
      </g>
      <g>
        <path d="M851.7,832.31c3.55-1.54,6.51-4.4,8.18-7.89-18.54,15.29-36.58,31.18-54.08,47.65,.71-7.99,6.38-14.53,11.78-20.46,6.66-7.32,13.31-14.64,19.97-21.95-.03,3.45-1.09,6.89-3,9.77,3.4-5.85,6.8-11.7,10.2-17.55-5.22,4.34-9.94,9.3-14.02,14.73,2.06-4.6,4.99-8.82,8.58-12.36,.1,2.57-.65,5.17-2.11,7.29,5.83-2.22,11.19-5.66,15.65-10.02-6.84,6.11-14.24,11.59-22.06,16.37,2.81-7.95,7.96-15.05,14.65-20.19-4.48,6.24-8.97,12.48-13.45,18.71,6.07-7.01,12.8-13.44,20.09-19.17-4.57,8.94-10.3,17.29-17.01,24.75,5.97-6.77,11.94-13.54,17.91-20.31-7.66,7.48-16.15,14.11-25.25,19.75,4.07-6.71,9.17-12.79,15.07-17.97"/>
        <path d="M852.46,833.6c3.78-1.7,6.88-4.71,8.72-8.43,.77-1.57-1.04-2.9-2.36-1.82-14.43,11.9-28.57,24.17-42.38,36.79-3.93,3.59-7.83,7.21-11.71,10.86l2.56,1.06c.8-8.07,6.81-14.42,12.01-20.13,6.43-7.07,12.87-14.15,19.3-21.22l-2.56-1.06c-.07,3.24-1.03,6.29-2.8,9.01l2.59,1.51c3.4-5.85,6.8-11.7,10.2-17.55,.9-1.54-1.09-2.87-2.36-1.82-5.33,4.45-10.07,9.5-14.25,15.04l2.59,1.51c2.05-4.5,4.84-8.56,8.35-12.06l-2.56-1.06c.05,2.38-.6,4.55-1.91,6.53-.69,1.04,.47,2.68,1.69,2.2,6.09-2.36,11.62-5.86,16.31-10.41,1.4-1.35-.69-3.4-2.12-2.12-6.76,6.02-14.04,11.41-21.76,16.14l2.2,1.69c2.78-7.74,7.77-14.49,14.26-19.53l-2.36-1.82c-4.48,6.24-8.97,12.48-13.45,18.71-.99,1.38,1.24,3.1,2.36,1.82,6.08-7.01,12.81-13.42,20.09-19.17l-2.36-1.82c-4.53,8.83-10.15,17.05-16.78,24.45l2.12,2.12c5.97-6.77,11.94-13.54,17.91-20.31,1.27-1.44-.72-3.48-2.12-2.12-7.59,7.39-15.95,13.92-24.95,19.52l2.05,2.05c4.03-6.61,9.03-12.54,14.83-17.66,1.45-1.28-.68-3.4-2.12-2.12-5.99,5.28-11.14,11.45-15.3,18.27-.77,1.27,.78,2.84,2.05,2.05,9.21-5.72,17.78-12.43,25.55-19.99l-2.12-2.12c-5.97,6.77-11.94,13.54-17.91,20.31-1.27,1.44,.83,3.57,2.12,2.12,6.79-7.58,12.6-16,17.25-25.06,.81-1.59-1.05-2.85-2.36-1.82-7.28,5.75-14.01,12.17-20.09,19.17l2.36,1.82c4.48-6.24,8.97-12.48,13.45-18.71,1.09-1.51-1.14-2.76-2.36-1.82-6.9,5.36-12.08,12.64-15.03,20.85-.45,1.25,1.14,2.35,2.2,1.69,7.93-4.86,15.42-10.43,22.37-16.61l-2.12-2.12c-4.3,4.17-9.39,7.47-14.98,9.64l1.69,2.2c1.59-2.39,2.38-5.18,2.32-8.04-.03-1.29-1.63-1.99-2.56-1.06-3.67,3.66-6.67,7.94-8.82,12.67-.81,1.78,1.43,3.05,2.59,1.51,4.02-5.32,8.67-10.15,13.78-14.43l-2.36-1.82c-3.4,5.85-6.8,11.7-10.2,17.55-.98,1.68,1.55,3.13,2.59,1.51,2.04-3.15,3.12-6.77,3.21-10.53,.03-1.26-1.68-2.03-2.56-1.06-6.75,7.42-13.51,14.83-20.24,22.26-5.52,6.08-11.1,12.73-11.94,21.22-.14,1.37,1.69,1.88,2.56,1.06,13.63-12.82,27.58-25.29,41.84-37.4,4.06-3.44,8.14-6.86,12.25-10.25l-2.36-1.82c-1.64,3.32-4.27,5.83-7.64,7.35-1.76,.79-.23,3.38,1.51,2.59h0Z"/>
      </g>
      <g>
        <path d="M836.4,829.31c-8.71,5.93-17.43,11.86-26.14,17.8,5.26-10.75,15-19.22,26.38-22.94,2.31,2.62,3.37,6.3,2.81,9.75"/>
        <path d="M835.65,828.01c-8.71,5.93-17.43,11.86-26.14,17.8l2.05,2.05c5.16-10.43,14.42-18.58,25.48-22.25l-1.46-.39c1.92,2.26,2.85,5.34,2.43,8.29-.27,1.89,2.62,2.7,2.89,.8,.59-4.1-.5-8.04-3.2-11.21-.33-.38-.99-.54-1.46-.39-11.77,3.9-21.77,12.5-27.28,23.63-.61,1.24,.71,2.96,2.05,2.05,8.71-5.93,17.43-11.86,26.14-17.8,1.59-1.08,.09-3.68-1.51-2.59h0Z"/>
      </g>
      <g>
        <path d="M303.84,861.89c-2.77,2.28-6.14-1.96-7.43-5.3-4.54-11.82-12.18-22.44-21.93-30.52-.3,6.85,6.44,13.12,13.25,12.33-5.42-8.04-15.57-12.6-25.18-11.32,4.23,12.69,15.16,22.93,28.1,26.31-.38-11.01-6.07-21.3-13.6-29.33s-16.87-14.13-26.1-20.14c-1.84,2.54,.48,5.97,2.74,8.15,12.39,11.94,26.94,21.63,42.73,28.47-6.06-14.12-14.8-27.08-25.6-38,2.68,9.33,11.33,15.52,19.67,20.48,12.05,7.16,24.68,13.35,37.72,18.49-7.61-12.77-21.26-20.5-34.29-27.65-1.68-.92-3.92-1.79-5.34-.5-.79,.72-.99,1.87-1.01,2.94-.14,6.33,4.16,11.79,8.22,16.65,1.24,1.48,2.69,3.07,4.62,3.19s3.78-2.4,2.4-3.75"/>
        <path d="M303.09,860.6c-2.71,2.03-5.13-4.22-5.84-5.94-1.57-3.81-3.42-7.5-5.58-11.02-4.32-7.03-9.79-13.35-16.13-18.63-.98-.82-2.53-.31-2.56,1.06-.2,7.7,7.04,14.58,14.75,13.83,1.03-.1,2-1.23,1.3-2.26-5.8-8.47-16.24-13.35-26.48-12.06-.9,.11-1.79,.88-1.45,1.9,4.48,13.23,15.63,23.75,29.15,27.36,.91,.24,1.94-.46,1.9-1.45-.72-18.01-13.7-31.91-27.48-41.99-4.21-3.08-8.59-5.93-12.96-8.78-.7-.46-1.63-.12-2.05,.54-2.19,3.37,.27,7.24,2.71,9.7,2.98,3.01,6.25,5.79,9.54,8.45,6.56,5.31,13.57,10.08,20.94,14.19,4.17,2.32,8.45,4.43,12.83,6.34,1.42,.62,2.67-.63,2.05-2.05-6.15-14.24-14.95-27.26-25.84-38.3-1.04-1.06-2.93,.02-2.51,1.46,2.46,8.29,9.14,14.15,16.14,18.75,8.26,5.42,17.15,10.03,26.08,14.25,5.33,2.52,10.74,4.85,16.22,7.02,1.25,.5,2.32-1.16,1.69-2.2-6.52-10.83-17.13-18.13-27.89-24.31-2.7-1.55-5.42-3.3-8.29-4.53s-6.16-.84-7.04,2.55c-.79,3.01,.19,6.51,1.41,9.26,1.29,2.93,3.19,5.53,5.17,8.02s4.5,6.28,8.11,5.85c2.93-.35,4.98-3.87,2.89-6.27-1.27-1.46-3.38,.67-2.12,2.12,.29,.34-.63,1.05-.89,1.13-1.1,.35-2.28-.81-2.97-1.52-1.82-1.87-3.46-4.03-4.94-6.17s-2.79-4.45-3.45-6.98c-.37-1.41-1.38-6.02,1.25-5.68,1.12,.14,2.14,.78,3.1,1.31,1.1,.61,2.2,1.21,3.3,1.83,2.21,1.23,4.4,2.49,6.57,3.8,4.24,2.57,8.39,5.32,12.19,8.52,4.29,3.62,8.11,7.76,11.01,12.58l1.69-2.2c-9.22-3.64-18.23-7.81-26.98-12.49-7.67-4.09-15.82-8.31-22.17-14.34-3.25-3.09-5.9-6.75-7.19-11.08l-2.51,1.46c10.72,10.87,19.32,23.68,25.37,37.7l2.05-2.05c-14.28-6.21-27.54-14.69-39.1-25.13-1.55-1.4-3.2-2.79-4.53-4.39-1.13-1.36-2.41-3.34-1.31-5.04l-2.05,.54c14.02,9.14,29.03,19.04,35.89,35.01,1.79,4.17,2.88,8.64,3.06,13.17l1.9-1.45c-12.47-3.33-22.91-13.02-27.05-25.26l-1.45,1.9c9.16-1.15,18.64,2.92,23.89,10.58l1.3-2.26c-6.12,.6-11.91-4.64-11.75-10.83l-2.56,1.06c5.35,4.46,10.09,9.64,13.98,15.42,1.96,2.91,3.72,5.96,5.25,9.12,1.39,2.87,2.26,6.15,4.14,8.76,1.74,2.42,4.88,4.95,7.81,2.76,1.53-1.14,.03-3.75-1.51-2.59h0Z"/>
      </g>
      <g>
        <path d="M296.28,836.11c.84-.84-.02,1.65-.76,.72s-.2-2.47-.96-3.38c-7.37-8.8-16.89-15.79-27.49-20.18,.79,8.78,5.08,17.19,11.73,22.98-.62-6.28-3.17-12.35-7.21-17.18,3.3,8.54,10.35,15.55,18.91,18.82-.57-6.73-2.9-13.3-6.7-18.87,6.94,5.97,13.87,11.93,20.81,17.9-5.65-9.03-12.73-17.16-20.9-23.99,2.12,15.07,8.63,29.49,18.54,41.04,.53-9.5-2.06-19.16-7.28-27.12-.35,13.33,4.51,26.73,13.33,36.74-5.58-12.18-13.95-23.07-24.3-31.59,6.07,14.57,17.56,26.8,31.73,33.77,5.04-3.2,1.7-11.02-2.28-15.47-9.5-10.59-20.57-19.76-32.75-27.11,3.41,14.71,13.32,27.79,26.55,35.06,2.89-11.45-.83-24.32-9.37-32.47-1.64,9.49,.46,19.57,5.75,27.61-3.5-8.5-8.86-16.23-15.59-22.49,3.69,9.84,11.9,17.87,21.81,21.36-7.87-15.25-18.52-29.05-31.26-40.54,6.52,15.03,17.46,28.12,31.09,37.21-14.11-15.59-30.2-29.38-47.76-40.95,14.99,19.72,34.21,36.21,55.98,48.03-7.33-14.33-18.36-26.75-31.73-35.71-.6,18.39,14.81,32.86,28.94,44.65-6.65-18.43-17.08-35.48-30.46-49.79,.82,8.47,4.62,16.62,10.58,22.68-3.06-6.86-6.28-13.66-9.65-20.38-3.37-6.73-8.45-14.35-15.97-14.09,.65,3.84,1.89,7.57,3.65,11.04-.45-2.56-2.65-4.71-5.22-5.1,1.87,9.17,5.14,18.04,9.67,26.23,3.36-4.36,3.04-11.15-.73-15.17"/>
        <path d="M297.35,837.17l-.75,.27-1.3-.74c-.48-.76,.08-1.13-.18-.8,1.28,.48,1.77,.37,1.48-.34-.02-.14-.04-.28-.05-.43-.09-.75-.13-1.49-.52-2.17-.77-1.35-2.11-2.54-3.17-3.67-2.37-2.52-4.92-4.86-7.63-7.01-5.43-4.3-11.37-7.79-17.76-10.46-.86-.36-1.98,.55-1.9,1.45,.88,9.22,5.2,17.9,12.17,24.04,.87,.77,2.71,.34,2.56-1.06-.71-6.75-3.33-13.01-7.65-18.24-.93-1.13-3.05,.08-2.51,1.46,3.59,9.11,10.82,16.32,19.96,19.87,.86,.34,1.98-.53,1.9-1.45-.64-7.02-2.97-13.77-6.91-19.63l-2.36,1.82c6.94,5.97,13.87,11.93,20.81,17.9,1.23,1.05,3.31-.29,2.36-1.82-5.74-9.14-12.87-17.35-21.13-24.29-1.21-1.01-2.72-.03-2.51,1.46,2.2,15.37,8.86,29.9,18.93,41.7,.9,1.05,2.5,.14,2.56-1.06,.49-9.8-2.15-19.64-7.48-27.88-.8-1.24-2.76-.76-2.8,.76-.31,13.8,4.69,27.42,13.76,37.8,1.2,1.37,3.02-.37,2.36-1.82-5.67-12.3-14.1-23.26-24.53-31.89-1-.83-3.15-.08-2.51,1.46,6.29,14.96,17.85,27.45,32.42,34.66,.47,.23,1.05,.31,1.51,0,6.52-4.38,1.99-13.33-1.98-17.82-6.05-6.84-12.89-13.02-20.15-18.56-4.14-3.16-8.45-6.09-12.9-8.78-1.16-.7-2.5,.45-2.2,1.69,3.57,15.12,13.65,28.43,27.24,35.96,.82,.46,1.97,.07,2.2-.9,2.96-12.05-.82-25.3-9.76-33.93-.74-.72-2.31-.5-2.51,.66-1.66,9.95,.39,20.29,5.9,28.77,.87,1.34,3.43,.49,2.74-1.16-3.64-8.76-9.04-16.66-15.98-23.15-1.01-.94-3.07-.03-2.51,1.46,3.97,10.4,12.37,18.65,22.86,22.41,1.31,.47,2.25-1.13,1.69-2.2-7.96-15.36-18.67-29.25-31.5-40.84-1.32-1.2-3.02,.29-2.36,1.82,6.68,15.29,17.78,28.46,31.63,37.75,1.47,.99,2.92-1.14,1.82-2.36-11.06-12.2-23.31-23.28-36.53-33.1-3.77-2.8-7.62-5.49-11.54-8.08-1.2-.79-2.97,.84-2.05,2.05,11.84,15.53,26.14,29.07,42.35,39.98,4.59,3.09,9.32,5.95,14.18,8.6,1.35,.74,2.74-.72,2.05-2.05-7.49-14.58-18.68-27.09-32.26-36.25-.98-.66-2.23,.22-2.26,1.3-.4,15.04,9.42,27.49,19.81,37.3,3.09,2.92,6.31,5.68,9.56,8.4,1.03,.86,3.07,.08,2.51-1.46-5.27-14.51-12.76-28.13-22.23-40.33-2.72-3.5-5.59-6.88-8.62-10.12-.83-.89-2.69-.25-2.56,1.06,.91,8.92,4.76,17.3,11.02,23.74,1.27,1.3,3.01-.34,2.36-1.82-1.93-4.33-3.92-8.63-5.98-12.9-1.79-3.73-3.52-7.53-5.62-11.09-3.3-5.59-8.25-11.36-15.31-11.23-1.05,.02-1.62,.94-1.45,1.9,.7,3.98,1.99,7.79,3.8,11.4,.8,1.59,3.07,.43,2.74-1.16-.64-3.08-3.16-5.58-6.27-6.15-1.15-.21-2.09,.67-1.85,1.85,1.92,9.3,5.25,18.27,9.82,26.59,.59,1.08,1.95,.86,2.59,0,3.75-5.03,3.21-12.38-.96-16.98-1.3-1.43-3.42,.69-2.12,2.12,3.34,3.68,3.42,9.42,.5,13.35h2.59c-4.46-8.1-7.65-16.81-9.52-25.87l-1.85,1.85c2.16,.4,3.72,1.9,4.17,4.06l2.74-1.16c-1.69-3.38-2.84-6.96-3.5-10.68l-1.45,1.9c6.44-.12,10.64,5.95,13.44,11,4.06,7.33,7.47,15.09,10.88,22.73l2.36-1.82c-5.67-5.84-9.32-13.51-10.14-21.62l-2.56,1.06c10.25,11.01,18.75,23.59,25.14,37.21,1.83,3.9,3.47,7.88,4.94,11.92l2.51-1.46c-10.55-8.81-22.22-18.86-26.77-32.29-1.24-3.65-1.83-7.44-1.73-11.29l-2.26,1.3c13.17,8.87,23.93,21.05,31.19,35.17l2.05-2.05c-16.81-9.15-32.05-21.03-45.03-35.09-3.66-3.97-7.14-8.11-10.42-12.4l-2.05,2.05c13.59,8.97,26.29,19.25,37.87,30.7,3.29,3.25,6.48,6.59,9.59,10.02l1.82-2.36c-13.44-9.01-24.08-21.85-30.56-36.67l-2.36,1.82c12.66,11.44,23.18,25.08,31.03,40.24l1.69-2.2c-9.42-3.37-17.19-10.96-20.77-20.31l-2.51,1.46c6.53,6.11,11.77,13.55,15.21,21.82l2.74-1.16c-5.05-7.77-7.13-17.3-5.6-26.46l-2.51,.66c8.16,7.88,11.7,19.98,8.99,31.01l2.2-.9c-12.94-7.18-22.46-19.76-25.86-34.16l-2.2,1.69c7.11,4.31,13.84,9.2,20.09,14.67,3.09,2.7,6.06,5.54,8.91,8.5,2.5,2.6,5.02,5.17,6.59,8.47,1.22,2.56,2.26,6.45-.56,8.35h1.51c-13.82-6.85-25.06-18.63-31.04-32.87l-2.51,1.46c10.26,8.49,18.49,19.19,24.06,31.29l2.36-1.82c-8.56-9.79-13.17-22.69-12.89-35.68l-2.8,.76c5.07,7.83,7.54,17.05,7.07,26.36l2.56-1.06c-9.75-11.42-16.03-25.53-18.16-40.38l-2.51,1.46c8.07,6.78,15.05,14.76,20.66,23.69l2.36-1.82c-6.94-5.97-13.87-11.93-20.81-17.9-1.21-1.04-3.37,.31-2.36,1.82,3.64,5.41,5.91,11.62,6.5,18.12l1.9-1.45c-8.06-3.13-14.69-9.73-17.86-17.77l-2.51,1.46c3.77,4.57,6.15,10.23,6.77,16.12l2.56-1.06c-6.35-5.6-10.48-13.48-11.29-21.92l-1.9,1.45c8.05,3.37,15.47,8.27,21.74,14.34,1.59,1.53,3.13,3.13,4.55,4.83,1.07,1.28,.32,3.38,1.94,4.38,1.35,.83,2.8-.32,3.15-1.65,.5-1.88-1.52-2.7-2.83-1.57-1.46,1.26,.67,3.38,2.12,2.12h0Z"/>
      </g>
    </g>
  </g>
</svg>