<?xml version="1.0" standalone="no"?>
<!DOCTYPE svg PUBLIC "-//W3C//DTD SVG 20010904//EN"
 "http://www.w3.org/TR/2001/REC-SVG-20010904/DTD/svg10.dtd">
<svg version="1.0" xmlns="http://www.w3.org/2000/svg"
 width="247.000000pt" height="247.000000pt" viewBox="0 0 247.000000 247.000000"
 preserveAspectRatio="xMidYMid meet">
<metadata>
Created by potrace 1.10, written by Peter Selinger 2001-2011
</metadata>
<g transform="translate(0.000000,247.000000) scale(0.100000,-0.100000)"
fill="#000000" stroke="none">
<path d="M1188 2332 c-18 -29 -127 -143 -235 -244 -59 -56 -88 -69 -108 -49
-6 6 -40 6 -84 1 -59 -6 -77 -5 -88 6 -22 22 -52 36 -64 29 -5 -4 -16 -1 -24
5 -23 19 -146 23 -179 6 -49 -25 -58 -57 -46 -162 5 -51 10 -97 10 -102 0 -4
9 -18 20 -29 16 -18 19 -37 21 -133 1 -106 0 -113 -22 -134 -13 -12 -49 -51
-79 -86 -67 -77 -139 -145 -187 -177 -31 -21 -28 -33 18 -70 21 -17 67 -64
100 -105 34 -40 85 -99 115 -130 l54 -58 0 -94 c0 -57 4 -97 11 -102 7 -4 2
-16 -14 -33 -38 -40 -47 -65 -47 -123 0 -30 -5 -59 -11 -65 -22 -22 61 -135
93 -125 5 1 37 3 74 4 36 1 67 5 70 10 3 4 13 8 23 8 9 0 32 11 50 24 27 20
38 23 58 15 31 -11 151 -10 159 3 3 4 31 -16 62 -45 31 -30 75 -69 97 -88 22
-18 73 -66 114 -107 l74 -73 31 38 c87 106 274 278 303 278 13 1 23 -3 23 -7
0 -4 34 -8 75 -8 43 0 75 4 75 10 0 16 14 12 39 -11 22 -21 89 -40 182 -53 40
-6 50 -3 85 23 49 35 72 82 56 114 -7 12 -11 29 -10 37 5 36 -15 120 -34 140
-15 15 -19 30 -15 53 3 18 2 67 -2 111 l-7 78 56 62 c75 84 156 164 214 213
l48 41 -43 38 c-24 20 -95 89 -156 153 l-113 116 1 123 c1 67 4 122 8 122 12
0 41 80 41 113 0 17 5 50 10 72 7 32 5 45 -11 71 -29 48 -117 83 -139 55 -3
-3 -31 -7 -63 -7 -52 -1 -62 -5 -92 -34 -25 -24 -38 -30 -47 -23 -24 18 -58
21 -128 11 l-70 -10 -53 49 c-28 27 -81 77 -117 111 -36 33 -85 85 -110 116
-25 30 -47 55 -50 56 -3 0 -13 -13 -22 -28z m44 -59 c29 -34 27 -38 -23 -39
-43 -1 -48 1 -36 15 38 48 38 48 59 24z m87 -135 c131 -110 281 -266 281 -292
0 -5 9 -21 21 -37 12 -17 23 -52 26 -85 5 -48 8 -55 27 -53 31 3 114 -21 127
-37 6 -8 16 -14 21 -14 43 0 368 -338 368 -383 0 -24 -21 -58 -86 -137 -151
-184 -318 -311 -409 -312 l-45 -1 0 -44 c0 -93 -151 -287 -330 -423 -25 -19
-47 -37 -50 -40 -3 -3 -17 -13 -31 -22 -23 -15 -29 -15 -55 -2 -16 8 -31 18
-34 22 -3 4 -34 32 -70 62 -150 126 -236 222 -274 305 -11 22 -23 48 -27 57
-5 10 -9 33 -9 52 0 32 -1 33 -38 32 -42 -1 -98 24 -182 83 -75 52 -320 320
-320 350 0 48 234 310 335 375 115 75 124 79 168 73 l42 -6 -3 49 c-3 40 1 55
22 83 14 19 26 37 26 41 0 55 338 373 399 375 7 1 52 -31 100 -71z m-824 -107
c3 -6 28 -10 56 -9 55 0 74 -11 83 -47 6 -23 36 -36 36 -16 0 5 34 12 76 16
93 9 113 -3 70 -40 -16 -14 -33 -25 -38 -25 -4 0 -8 -10 -8 -21 0 -25 -171
-205 -204 -215 -12 -4 -34 -22 -49 -40 -16 -19 -33 -32 -38 -29 -12 8 -12 84
0 121 22 69 22 84 2 84 -27 0 -41 21 -50 81 -5 30 -12 66 -16 81 -5 19 -1 32
14 47 22 22 56 28 66 12z m1527 -30 c7 -18 6 -40 -2 -71 -6 -25 -12 -56 -12
-70 0 -33 -15 -50 -45 -50 -20 0 -24 -4 -18 -17 6 -14 24 -113 35 -190 0 -2
-7 -3 -16 -3 -9 0 -25 11 -36 25 -11 14 -34 31 -51 39 -39 16 -196 169 -217
211 -8 16 -30 45 -49 64 -28 29 -31 35 -17 43 9 5 23 5 33 0 10 -5 45 -9 78
-11 33 -1 62 -6 63 -11 2 -6 12 -10 23 -10 13 0 19 7 19 24 0 20 8 27 48 40
94 30 149 26 164 -13z m-1285 -248 c-8 -32 -17 -43 -36 -48 -14 -3 -34 -8 -44
-11 -10 -3 5 19 34 50 29 31 53 55 55 54 1 -2 -3 -22 -9 -45z m1008 -23 l49
-49 -48 18 c-50 19 -66 34 -66 64 0 27 12 21 65 -33z m-1539 -476 c-3 -9 -6
-22 -6 -30 0 -19 -19 -18 -26 1 -7 16 12 45 28 45 6 0 7 -7 4 -16z m2044 -49
c-30 -32 -42 -32 -30 1 6 14 8 30 4 35 -13 22 9 30 29 10 l21 -21 -24 -25z
m-1780 -330 c0 -18 62 -81 89 -90 11 -3 21 -10 21 -15 0 -4 11 -11 25 -14 37
-9 110 -86 146 -152 18 -33 45 -72 60 -88 22 -22 26 -33 18 -42 -7 -9 -17 -11
-28 -5 -9 5 -42 12 -73 15 -32 4 -60 12 -63 17 -11 17 -25 9 -25 -15 0 -36
-20 -46 -120 -60 -9 -1 -20 -5 -26 -9 -7 -4 -26 1 -44 9 -31 16 -32 17 -27 78
9 107 16 126 49 133 24 5 29 9 23 27 -3 12 -10 50 -16 86 -5 36 -11 73 -12 82
-2 10 -6 21 -10 24 -11 11 -8 46 3 39 6 -3 10 -12 10 -20z m1496 -107 c-4 -48
-9 -95 -12 -103 -4 -9 0 -15 9 -15 29 0 54 -52 61 -127 6 -69 5 -72 -20 -90
-22 -17 -34 -18 -73 -11 -92 19 -106 24 -117 46 -17 34 -16 33 -91 18 -68 -15
-143 -12 -143 5 0 4 15 20 33 36 18 15 39 40 46 55 18 35 175 188 222 216 21
12 44 34 53 47 29 44 39 20 32 -77z m-176 -1 c0 -1 -30 -32 -66 -67 -38 -37
-61 -54 -54 -40 8 14 16 38 19 54 5 23 15 32 46 42 44 13 55 15 55 11z m-1064
-42 c24 -37 12 -40 -21 -5 -22 23 -25 30 -12 30 9 0 24 -11 33 -25z m527 -520
c-18 -25 -43 -29 -50 -9 -4 11 31 32 55 33 9 1 8 -6 -5 -24z"/>
<path d="M1190 2140 c0 -5 -6 -10 -14 -10 -7 0 -79 -64 -158 -143 -115 -113
-151 -154 -172 -200 -38 -84 -33 -140 17 -177 31 -23 70 -63 87 -89 8 -13 27
-39 43 -59 27 -34 31 -45 28 -69 -1 -7 4 -13 12 -13 8 0 40 -27 72 -60 31 -34
60 -59 62 -56 6 5 -3 17 -76 107 -24 30 -55 69 -70 88 -14 19 -38 49 -53 67
-16 17 -28 35 -28 38 0 4 -11 19 -25 34 -14 15 -25 34 -25 44 0 9 -5 18 -10
20 -6 2 -11 19 -12 39 -1 25 9 50 36 89 41 61 195 221 256 266 22 16 40 35 40
42 0 17 8 15 34 -10 13 -13 67 -63 121 -113 96 -88 157 -161 184 -220 7 -16
17 -37 21 -45 4 -10 -2 -28 -16 -50 -13 -19 -24 -40 -24 -47 0 -7 -4 -13 -8
-13 -4 0 -16 -15 -27 -32 -10 -18 -29 -44 -42 -58 -13 -14 -23 -28 -23 -31 0
-4 -15 -25 -32 -47 -18 -21 -46 -56 -63 -77 -16 -21 -38 -46 -47 -56 -10 -11
-18 -27 -17 -36 0 -14 2 -14 6 -4 3 8 40 47 81 87 52 49 76 80 78 99 2 15 9
32 17 38 7 7 35 42 61 79 30 44 51 65 60 62 37 -14 50 108 17 154 -10 15 -20
32 -22 38 -11 31 -144 177 -203 222 -15 12 -51 42 -78 67 -46 42 -88 59 -88
35z"/>
<path d="M712 1609 c-72 -12 -118 -44 -241 -168 -122 -122 -181 -192 -181
-213 0 -11 51 -80 80 -108 3 -3 31 -35 63 -72 86 -99 230 -204 287 -208 51 -4
70 1 97 26 l28 25 -25 -5 c-76 -15 -120 -18 -120 -7 0 6 -8 11 -19 11 -10 0
-24 7 -31 15 -7 8 -17 15 -24 15 -6 0 -29 20 -53 45 -23 25 -47 45 -53 45 -6
0 -8 5 -5 10 3 6 -1 10 -9 10 -19 0 -48 29 -41 41 4 5 -1 9 -9 9 -9 0 -16 4
-16 9 0 5 -16 25 -35 44 -19 19 -35 42 -35 52 0 9 -5 13 -10 10 -14 -9 -40 13
-40 34 0 19 92 121 109 121 7 0 9 5 6 10 -3 6 -2 10 3 10 11 0 117 99 117 110
0 11 72 70 86 70 8 0 23 7 33 15 27 21 79 19 126 -4 22 -11 42 -16 45 -11 6
10 -29 50 -44 50 -6 0 -11 5 -11 10 0 11 -4 11 -78 -1z"/>
<path d="M1625 1607 c-20 -12 -35 -27 -35 -38 0 -3 24 -1 54 4 64 12 93 6 132
-28 16 -14 35 -25 42 -25 6 0 12 -4 12 -8 0 -5 11 -14 25 -20 14 -6 25 -18 25
-27 0 -8 11 -17 25 -21 14 -3 23 -10 20 -14 -2 -4 4 -18 15 -30 11 -13 20 -20
20 -15 0 4 10 -5 22 -21 13 -16 31 -38 40 -48 10 -11 20 -28 23 -37 4 -12 12
-16 22 -12 13 5 15 2 10 -11 -4 -11 -3 -15 4 -10 10 6 28 -12 29 -28 0 -4 -17
-22 -37 -40 -21 -18 -52 -48 -69 -65 -17 -18 -36 -33 -42 -33 -7 0 -12 -4 -12
-10 0 -5 -27 -37 -60 -70 -33 -33 -60 -64 -60 -69 0 -10 -30 -25 -44 -22 -5 1
-13 -3 -17 -10 -8 -13 -15 -15 -81 -26 -25 -4 -38 -2 -38 6 0 6 -9 11 -21 11
-11 0 -29 5 -40 10 -28 16 -23 4 13 -31 28 -26 38 -30 78 -26 87 8 130 32 232
129 101 97 228 238 228 254 0 5 -8 19 -17 30 -10 10 -43 48 -73 84 -94 111
-190 199 -270 247 -42 25 -127 36 -155 20z"/>
<path d="M1131 1173 c-5 -10 -32 -40 -59 -67 -28 -28 -62 -73 -77 -102 -14
-28 -37 -62 -51 -75 -13 -12 -24 -28 -24 -34 0 -6 -18 -22 -39 -35 -22 -14
-45 -36 -51 -49 -13 -29 -4 -104 19 -146 47 -87 178 -222 337 -348 25 -19 25
-19 63 6 20 14 96 84 169 155 95 95 138 146 156 185 34 70 35 132 2 169 -12
15 -25 25 -28 22 -6 -6 -77 78 -128 150 -25 36 -29 48 -16 43 10 -4 -12 22
-49 58 -37 36 -72 65 -77 65 -11 0 4 -28 29 -55 10 -11 41 -48 68 -83 28 -35
62 -78 77 -95 15 -18 28 -36 28 -40 0 -4 9 -18 21 -30 58 -63 71 -151 26 -193
-15 -13 -27 -31 -27 -38 0 -17 -204 -219 -247 -246 -22 -13 -33 -28 -33 -42
-1 -22 -1 -22 -12 -3 -15 26 -55 65 -66 65 -12 0 -222 216 -222 229 0 5 -6 16
-12 23 -34 35 -52 103 -32 122 8 8 14 21 14 30 0 8 4 17 9 21 12 7 91 125 91
135 0 5 4 10 8 12 16 6 152 181 152 194 0 19 -7 18 -19 -3z"/>
<path d="M464 1967 c3 -12 9 -40 13 -62 7 -46 16 -55 61 -55 38 0 40 -10 11
-69 -11 -23 -19 -55 -16 -69 3 -24 4 -25 11 -7 5 11 14 34 21 50 28 64 23 90
-25 120 -50 31 -55 65 -11 65 23 0 34 -8 52 -37 26 -42 33 -34 21 23 -6 30
-12 38 -27 36 -10 -2 -21 1 -24 6 -3 5 -26 12 -49 15 -41 5 -44 4 -38 -16z"/>
<path d="M710 1920 c-8 -5 -30 -15 -47 -22 -36 -14 -43 -28 -16 -28 29 0 103
34 103 48 0 14 -18 15 -40 2z"/>
<path d="M1939 1976 c-2 -3 -24 -6 -49 -9 -37 -3 -46 -8 -48 -26 -2 -12 -1
-30 3 -39 5 -14 8 -12 18 8 9 18 22 26 45 28 31 3 33 2 30 -25 -2 -17 -11 -32
-25 -38 -26 -11 -29 -23 -9 -31 28 -11 54 14 61 58 3 24 9 51 11 61 4 12 0 17
-14 17 -10 0 -21 -2 -23 -4z"/>
<path d="M1680 1917 c0 -7 26 -21 58 -31 31 -10 63 -21 70 -23 6 -3 12 2 12
10 0 15 -23 26 -75 34 -16 2 -34 9 -39 14 -14 13 -26 11 -26 -4z"/>
<path d="M1860 1821 c0 -5 9 -39 21 -77 16 -51 23 -64 30 -52 10 18 1 75 -12
84 -5 3 -9 13 -9 24 0 10 -7 20 -15 24 -8 3 -15 1 -15 -3z"/>
<path d="M530 742 c0 -18 5 -41 10 -52 6 -11 15 -29 20 -40 18 -35 13 -53 -13
-46 -12 3 -33 3 -45 -1 -19 -4 -22 -12 -22 -52 0 -26 -5 -52 -12 -59 -9 -9 -9
-12 3 -13 7 -1 17 -1 22 0 4 1 26 2 48 3 44 1 69 25 69 65 0 22 19 31 34 16
14 -15 90 -32 104 -24 16 9 -18 25 -86 40 -41 9 -43 8 -75 -31 -28 -33 -37
-38 -59 -33 -17 4 -25 12 -23 23 2 9 4 23 4 30 1 6 11 12 24 12 49 0 59 41 31
126 -21 63 -34 77 -34 36z"/>
<path d="M1894 745 c-12 -27 -25 -68 -29 -89 -5 -33 -4 -37 7 -25 18 18 51
123 46 146 -2 12 -11 0 -24 -32z"/>
<path d="M1886 601 c-4 -5 6 -16 21 -23 20 -9 28 -21 28 -38 0 -36 -38 -40
-61 -6 -22 34 -34 33 -34 -4 0 -34 15 -43 93 -53 42 -6 47 -5 47 13 0 10 -4
21 -9 24 -5 3 -9 22 -9 42 0 19 -2 37 -3 38 -12 10 -68 16 -73 7z"/>
<path d="M1770 583 c-8 -2 -29 -11 -47 -19 -17 -8 -36 -14 -42 -14 -6 0 -11
-4 -11 -10 0 -5 8 -10 18 -10 20 0 89 23 98 33 4 4 21 7 38 7 24 0 27 3 16 10
-16 10 -45 12 -70 3z"/>
</g>
</svg>
