<?xml version="1.0" standalone="no"?>
<!DOCTYPE svg PUBLIC "-//W3C//DTD SVG 20010904//EN"
 "http://www.w3.org/TR/2001/REC-SVG-20010904/DTD/svg10.dtd">
<svg version="1.0" xmlns="http://www.w3.org/2000/svg"
 width="250.000000pt" height="243.000000pt" viewBox="0 0 250.000000 243.000000"
 preserveAspectRatio="xMidYMid meet">
<metadata>
Created by potrace 1.10, written by Peter Selinger 2001-2011
</metadata>
<g transform="translate(0.000000,243.000000) scale(0.100000,-0.100000)"
fill="#000000" stroke="none">
<path d="M1114 2337 c-64 -21 -155 -74 -220 -126 -69 -56 -157 -179 -175 -243
-14 -54 -6 -152 21 -238 l20 -65 -3 52 c-2 29 0 50 5 47 4 -3 8 -14 8 -25 0
-11 7 -36 15 -56 22 -52 13 -71 -21 -44 -15 12 -33 21 -40 21 -7 0 -16 5 -20
12 -5 8 -2 9 9 5 9 -3 19 -2 22 3 11 17 -72 35 -165 35 -114 0 -156 -17 -247
-100 -69 -62 -163 -183 -182 -235 -7 -19 -20 -53 -28 -75 -17 -44 -14 -175 4
-210 6 -11 23 -45 38 -75 55 -110 197 -258 282 -296 46 -20 238 -19 277 1 16
9 31 14 33 12 2 -2 -3 -30 -12 -63 -21 -80 -20 -216 2 -262 62 -135 211 -266
359 -317 71 -25 88 -27 174 -22 52 3 111 12 130 19 122 46 259 156 329 263
l46 70 0 105 c-1 118 -20 207 -40 190 -10 -8 -16 -2 -25 25 -6 19 -10 39 -8
44 2 5 28 -5 58 -21 l55 -29 -40 5 -40 6 40 -22 c48 -26 195 -37 262 -19 55
15 169 105 231 183 27 35 67 97 88 138 38 72 39 78 39 175 0 84 -4 110 -25
160 -50 123 -193 282 -295 331 -42 20 -65 24 -145 23 -56 0 -111 -6 -135 -14
-21 -8 -41 -13 -42 -11 -2 2 4 34 13 72 10 43 14 99 12 149 -3 73 -7 85 -42
140 -21 33 -61 84 -89 113 -53 54 -175 137 -237 161 -50 19 -245 24 -296 8z
m226 -43 c122 -26 260 -126 345 -250 40 -57 40 -59 40 -148 -1 -134 -22 -213
-80 -311 -19 -32 -35 -60 -35 -62 0 -4 93 70 110 87 11 11 67 38 104 50 61 20
176 15 231 -9 71 -31 205 -174 249 -264 67 -137 66 -230 -6 -364 -43 -82 -132
-178 -213 -234 -47 -32 -55 -34 -142 -36 -114 -3 -169 17 -262 94 -36 29 -66
51 -68 49 -2 -2 10 -24 27 -49 30 -45 57 -109 66 -157 3 -14 9 -41 14 -60 14
-48 12 -150 -2 -191 -6 -18 -22 -49 -35 -69 -25 -38 -162 -170 -176 -170 -5 0
-22 -9 -38 -20 -80 -57 -235 -78 -339 -46 -53 16 -117 50 -167 87 -53 40 -123
107 -123 119 0 3 -8 15 -18 26 -10 10 -25 33 -34 50 -21 42 -23 184 -4 247 8
26 13 47 11 47 -9 0 46 115 70 146 14 18 25 35 25 39 0 10 -32 -12 -75 -50
-64 -58 -136 -86 -226 -89 -109 -3 -162 18 -242 97 -112 110 -141 153 -177
255 -46 131 -6 258 134 422 29 34 97 91 133 111 48 27 151 36 224 19 80 -19
94 -27 187 -112 19 -16 36 -28 38 -25 3 2 -8 24 -25 49 -49 73 -71 136 -93
269 -15 87 -1 138 62 227 50 71 66 86 146 143 116 83 237 111 364 83z m401
-591 c1 -10 1 -22 0 -27 -1 -5 5 -6 13 -3 20 8 95 18 76 11 -8 -3 -39 -17 -68
-31 -30 -13 -56 -22 -59 -20 -2 3 1 23 7 46 11 42 29 55 31 24z m-941 -913 c0
-5 -6 -27 -14 -47 -8 -21 -17 -47 -19 -58 -3 -11 -5 -3 -6 18 -1 30 -6 40 -21
44 -19 5 -18 8 12 29 34 26 48 30 48 14z"/>
<path d="M1193 2044 c-37 -8 -79 -86 -109 -199 -3 -11 -8 -31 -12 -45 -9 -35
-8 -288 1 -325 24 -89 40 -135 49 -135 19 0 6 -29 -14 -33 -14 -3 -10 -4 10
-4 18 1 38 8 45 17 9 12 9 13 -3 3 -11 -10 -17 -3 -32 40 -34 91 -48 169 -48
273 0 105 13 199 35 249 7 17 18 44 24 60 25 65 43 78 107 77 53 0 62 -3 84
-30 31 -37 69 -143 84 -231 18 -106 3 -283 -30 -368 -25 -65 -29 -70 -53 -65
-94 16 -111 14 -146 -12 -19 -15 -40 -37 -46 -49 -17 -31 -14 -105 6 -127 11
-12 13 -20 6 -25 -6 -3 -11 -3 -11 2 -1 20 -43 -79 -60 -142 -15 -56 -18 -98
-16 -205 2 -74 6 -145 9 -158 18 -69 18 -69 55 -153 31 -70 44 -79 113 -79 72
0 90 8 116 53 20 32 57 136 71 193 8 35 7 289 -1 324 -3 14 -8 35 -10 46 -13
52 -50 124 -66 124 -15 1 -15 2 0 13 9 7 21 29 28 50 11 33 10 43 -6 75 -13
28 -16 43 -8 60 5 12 13 22 17 22 6 0 15 25 34 95 2 6 6 21 10 35 11 40 14
273 3 316 -5 21 -12 48 -14 59 -10 44 -59 151 -79 173 -22 23 -95 36 -143 26z
m124 -735 c7 -6 13 -6 16 1 3 6 4 5 3 -2 -2 -7 5 -24 15 -37 26 -33 25 -95 -3
-123 -19 -19 -20 -22 -4 -33 9 -7 28 -46 43 -86 24 -68 27 -87 27 -234 1 -169
-11 -231 -65 -336 -24 -48 -45 -59 -108 -59 -70 0 -82 14 -125 141 -41 119
-49 216 -31 369 9 74 54 193 71 186 17 -6 15 32 -3 59 -16 24 -17 79 -1 108
11 22 38 46 68 59 18 9 80 0 97 -13z"/>
<path d="M1183 1103 c11 -12 32 -17 60 -17 66 2 97 8 93 19 -2 6 -10 8 -17 6
-34 -11 -112 -12 -122 -2 -6 6 -16 11 -21 11 -6 0 -3 -8 7 -17z"/>
<path d="M1560 1373 c-43 -6 -150 -37 -150 -43 0 -3 21 -7 48 -8 29 -1 42 2
33 7 -23 15 82 34 146 26 32 -3 76 -8 97 -11 79 -9 215 -55 224 -76 2 -5 10
-8 17 -8 14 0 25 -21 25 -49 0 -66 -219 -144 -394 -140 -83 2 -148 15 -96 20
14 1 -2 5 -35 9 -33 5 -61 7 -63 5 -2 -1 19 -13 45 -26 55 -27 191 -35 278
-18 28 6 60 12 73 15 47 9 118 37 160 61 96 55 69 133 -62 182 -28 10 -65 22
-81 24 -17 3 -41 8 -55 12 -14 3 -47 8 -75 10 -27 3 -63 7 -80 9 -16 2 -41 1
-55 -1z"/>
<path d="M785 1363 c-55 -11 -181 -46 -190 -53 -10 -8 -16 -10 -35 -10 -5 0
-25 -14 -45 -31 -61 -54 -42 -104 55 -148 25 -11 54 -21 66 -21 11 0 24 -3 28
-7 3 -4 12 -8 19 -9 7 -2 23 -6 37 -9 125 -30 252 -29 324 3 27 12 47 24 45
26 -2 2 -31 1 -64 -4 -33 -4 -49 -8 -35 -9 23 -1 24 -2 6 -13 -44 -25 -299 8
-402 53 -48 21 -94 60 -94 79 0 41 110 98 255 130 56 13 189 15 235 5 30 -7
32 -9 15 -16 -13 -5 -2 -7 33 -6 28 1 52 5 52 9 0 4 -8 8 -19 8 -10 0 -34 6
-52 14 -32 13 -183 19 -234 9z"/>
</g>
</svg>
