<?xml version="1.0" encoding="UTF-8"?>
<!DOCTYPE svg PUBLIC "-//W3C//DTD SVG 1.1//EN" "http://www.w3.org/Graphics/SVG/1.1/DTD/svg11.dtd">
<svg xmlns="http://www.w3.org/2000/svg" version="1.1" width="250px" height="243px" style="shape-rendering:geometricPrecision; text-rendering:geometricPrecision; image-rendering:optimizeQuality; fill-rule:evenodd; clip-rule:evenodd" xmlns:xlink="http://www.w3.org/1999/xlink">
<g><path style="opacity:1" fill="#f3f3f5" d="M 87.5,29.5 C 88.4682,31.6074 88.8016,33.9407 88.5,36.5C 87.1667,36.5 85.8333,36.5 84.5,36.5C 84.5,37.8333 84.5,39.1667 84.5,40.5C 88.5,40.5 92.5,40.5 96.5,40.5C 96.5,41.8333 96.5,43.1667 96.5,44.5C 101.833,44.5 107.167,44.5 112.5,44.5C 105.43,61.2076 103.596,78.5409 107,96.5C 107.778,101.987 109.612,106.987 112.5,111.5C 110.265,111.795 108.265,111.461 106.5,110.5C 105.07,108.706 102.737,107.206 99.5,106C 83.0727,104.238 67.406,106.905 52.5,114C 46.3254,118.348 45.9921,123.015 51.5,128C 68.7854,137.245 86.7854,139.245 105.5,134C 106.942,133.623 107.942,132.79 108.5,131.5C 109.833,131.5 111.167,131.5 112.5,131.5C 109.108,137.721 106.942,144.388 106,151.5C 103.286,168.766 105.953,185.099 114,200.5C 114.833,202 116,203.167 117.5,204C 121.833,204.667 126.167,204.667 130.5,204C 133.314,202.506 135.314,200.34 136.5,197.5C 136.5,199.833 136.5,202.167 136.5,204.5C 135.167,204.5 133.833,204.5 132.5,204.5C 132.5,205.833 132.5,207.167 132.5,208.5C 143.167,208.5 153.833,208.5 164.5,208.5C 164.5,205.833 164.5,203.167 164.5,200.5C 165.833,200.5 167.167,200.5 168.5,200.5C 168.5,197.833 168.5,195.167 168.5,192.5C 169.5,192.5 170.5,192.5 171.5,192.5C 171.5,189.833 171.5,187.167 171.5,184.5C 170.5,184.5 169.5,184.5 168.5,184.5C 168.5,179.167 168.5,173.833 168.5,168.5C 172.024,177.074 173.191,186.074 172,195.5C 166.263,210.238 156.096,220.738 141.5,227C 111.589,234.796 90.0885,224.629 77,196.5C 75.57,185.806 76.9033,175.473 81,165.5C 82.5843,161.325 84.9177,157.659 88,154.5C 88.6877,153.668 88.521,153.002 87.5,152.5C 81.7684,158.401 75.1017,162.901 67.5,166C 60.5,166.667 53.5,166.667 46.5,166C 32.6823,158.16 22.6823,146.993 16.5,132.5C 14.7088,126.963 14.2088,121.296 15,115.5C 20.6023,97.0952 32.1023,83.9285 49.5,76C 59.1634,74.3385 68.1634,76.0052 76.5,81C 80,83.8333 83.5,86.6667 87,89.5C 84.785,84.5655 82.4516,79.5655 80,74.5C 76.3622,63.9893 75.6955,53.3226 78,42.5C 80.6991,37.7442 83.8658,33.4109 87.5,29.5 Z"/></g>
<g><path style="opacity:1" fill="#f3f4f6" d="M 164.5,33.5 C 169.459,38.5926 172.125,44.7593 172.5,52C 171.985,59.2738 170.818,66.4405 169,73.5C 166.586,78.9755 164.253,84.3088 162,89.5C 185.146,68.9674 206.146,70.9674 225,95.5C 235.701,109.585 237.201,124.585 229.5,140.5C 223.654,149.665 216.32,157.498 207.5,164C 189.464,170.824 174.131,166.991 161.5,152.5C 161.167,152.833 160.833,153.167 160.5,153.5C 164.074,158.059 166.741,163.059 168.5,168.5C 168.5,173.833 168.5,179.167 168.5,184.5C 169.5,184.5 170.5,184.5 171.5,184.5C 171.5,187.167 171.5,189.833 171.5,192.5C 170.5,192.5 169.5,192.5 168.5,192.5C 168.5,195.167 168.5,197.833 168.5,200.5C 167.167,200.5 165.833,200.5 164.5,200.5C 164.5,203.167 164.5,205.833 164.5,208.5C 153.833,208.5 143.167,208.5 132.5,208.5C 132.5,207.167 132.5,205.833 132.5,204.5C 133.833,204.5 135.167,204.5 136.5,204.5C 136.5,202.167 136.5,199.833 136.5,197.5C 143.906,179.048 145.406,160.048 141,140.5C 139.584,137.391 138.084,134.391 136.5,131.5C 143.167,131.5 149.833,131.5 156.5,131.5C 152.018,132.326 147.351,132.826 142.5,133C 145.215,134.908 148.215,136.241 151.5,137C 168.688,138.807 184.688,135.473 199.5,127C 202.576,124.388 203.243,121.221 201.5,117.5C 192.669,110.831 182.669,106.997 171.5,106C 162.327,104.864 153.327,105.531 144.5,108C 143.672,108.915 142.672,109.581 141.5,110C 141.728,110.399 142.062,110.565 142.5,110.5C 140.735,111.461 138.735,111.795 136.5,111.5C 141.689,101.395 144.023,90.5613 143.5,79C 143.766,66.9078 141.432,55.4078 136.5,44.5C 139.167,44.5 141.833,44.5 144.5,44.5C 144.5,43.1667 144.5,41.8333 144.5,40.5C 149.833,40.5 155.167,40.5 160.5,40.5C 160.5,41.8333 160.5,43.1667 160.5,44.5C 163.167,44.5 165.833,44.5 168.5,44.5C 168.5,43.1667 168.5,41.8333 168.5,40.5C 167.167,40.5 165.833,40.5 164.5,40.5C 164.5,38.1667 164.5,35.8333 164.5,33.5 Z"/></g>
<g><path style="opacity:0.169" fill="#7cbfea" d="M 73.5,69.5 C 74.905,71.2251 75.405,73.2251 75,75.5C 73.1239,74.3913 71.2905,73.3913 69.5,72.5C 70.8333,72.5 72.1667,72.5 73.5,72.5C 73.5,71.5 73.5,70.5 73.5,69.5 Z"/></g>
<g><path style="opacity:0.999" fill="#db9fd0" d="M 175.5,70.5 C 174.751,71.531 174.085,72.6976 173.5,74C 176.451,74.0221 179.117,73.1887 181.5,71.5C 189.735,70.0831 198.068,70.2497 206.5,72C 221.68,80.1763 232.18,92.343 238,108.5C 241.387,121.758 239.554,134.091 232.5,145.5C 232.5,143.833 232.5,142.167 232.5,140.5C 231.5,140.5 230.5,140.5 229.5,140.5C 237.201,124.585 235.701,109.585 225,95.5C 206.146,70.9674 185.146,68.9674 162,89.5C 164.253,84.3088 166.586,78.9755 169,73.5C 170.818,66.4405 171.985,59.2738 172.5,52C 172.125,44.7593 169.459,38.5926 164.5,33.5C 144.097,9.61568 120.764,6.11568 94.5,23C 92.0929,25.1831 89.7596,27.3497 87.5,29.5C 83.8658,33.4109 80.6991,37.7442 78,42.5C 75.6955,53.3226 76.3622,63.9893 80,74.5C 82.4516,79.5655 84.785,84.5655 87,89.5C 83.5,86.6667 80,83.8333 76.5,81C 68.1634,76.0052 59.1634,74.3385 49.5,76C 32.1023,83.9285 20.6023,97.0952 15,115.5C 14.2088,121.296 14.7088,126.963 16.5,132.5C 16.5,133.833 16.5,135.167 16.5,136.5C 15.1667,136.5 13.8333,136.5 12.5,136.5C 7.9768,123.876 8.81013,111.543 15,99.5C 22.2145,87.9519 31.7145,78.7852 43.5,72C 52.3578,69.8512 61.0245,70.0179 69.5,72.5C 71.2905,73.3913 73.1239,74.3913 75,75.5C 75.405,73.2251 74.905,71.2251 73.5,69.5C 67.5775,54.0356 70.0775,40.0356 81,27.5C 98.764,7.68364 120.264,2.18364 145.5,11C 159.748,18.2473 170.248,29.0806 177,43.5C 177.881,52.5948 177.381,61.5948 175.5,70.5 Z"/></g>
<g><path style="opacity:1" fill="#d79fce" d="M 136.5,44.5 C 141.432,55.4078 143.766,66.9078 143.5,79C 144.023,90.5613 141.689,101.395 136.5,111.5C 135.5,111.5 134.5,111.5 133.5,111.5C 134.266,105.168 135.099,98.8351 136,92.5C 137.135,81.5683 135.135,71.235 130,61.5C 126.333,57.5 122.667,57.5 119,61.5C 111.174,77.2423 110.341,93.409 116.5,110C 115.437,111.188 114.103,111.688 112.5,111.5C 109.612,106.987 107.778,101.987 107,96.5C 103.596,78.5409 105.43,61.2076 112.5,44.5C 114.637,39.0949 118.637,36.7616 124.5,37.5C 129.938,37.2546 133.938,39.5879 136.5,44.5 Z"/></g>
<g><path style="opacity:1" fill="#f6f7fb" d="M 164.5,33.5 C 164.5,35.8333 164.5,38.1667 164.5,40.5C 165.833,40.5 167.167,40.5 168.5,40.5C 168.5,41.8333 168.5,43.1667 168.5,44.5C 165.833,44.5 163.167,44.5 160.5,44.5C 160.5,43.1667 160.5,41.8333 160.5,40.5C 155.167,40.5 149.833,40.5 144.5,40.5C 144.5,41.8333 144.5,43.1667 144.5,44.5C 141.833,44.5 139.167,44.5 136.5,44.5C 133.938,39.5879 129.938,37.2546 124.5,37.5C 118.637,36.7616 114.637,39.0949 112.5,44.5C 107.167,44.5 101.833,44.5 96.5,44.5C 96.5,43.1667 96.5,41.8333 96.5,40.5C 92.5,40.5 88.5,40.5 84.5,40.5C 84.5,39.1667 84.5,37.8333 84.5,36.5C 85.8333,36.5 87.1667,36.5 88.5,36.5C 88.8016,33.9407 88.4682,31.6074 87.5,29.5C 89.7596,27.3497 92.0929,25.1831 94.5,23C 120.764,6.11568 144.097,9.61568 164.5,33.5 Z"/></g>
<g><path style="opacity:0.595" fill="#6bc2ef" d="M 175.5,70.5 C 175.369,71.3764 175.702,72.0431 176.5,72.5C 178.071,71.6906 179.738,71.3573 181.5,71.5C 179.117,73.1887 176.451,74.0221 173.5,74C 174.085,72.6976 174.751,71.531 175.5,70.5 Z"/></g>
<g><path style="opacity:1" fill="#d69dca" d="M 156.5,131.5 C 183.964,125.461 184.297,118.627 157.5,111C 152.511,110.501 147.511,110.334 142.5,110.5C 142.062,110.565 141.728,110.399 141.5,110C 142.672,109.581 143.672,108.915 144.5,108C 153.327,105.531 162.327,104.864 171.5,106C 182.669,106.997 192.669,110.831 201.5,117.5C 203.243,121.221 202.576,124.388 199.5,127C 184.688,135.473 168.688,138.807 151.5,137C 148.215,136.241 145.215,134.908 142.5,133C 147.351,132.826 152.018,132.326 156.5,131.5 Z"/></g>
<g><path style="opacity:1" fill="#d69eca" d="M 106.5,110.5 C 96.0241,109.976 86.0241,111.809 76.5,116C 72.271,118.329 71.6044,121.329 74.5,125C 85.0394,131.4 96.3727,133.567 108.5,131.5C 107.942,132.79 106.942,133.623 105.5,134C 86.7854,139.245 68.7854,137.245 51.5,128C 45.9921,123.015 46.3254,118.348 52.5,114C 67.406,106.905 83.0727,104.238 99.5,106C 102.737,107.206 105.07,108.706 106.5,110.5 Z"/></g>
<g><path style="opacity:1" fill="#7ee2f5" d="M 136.5,111.5 C 138.735,111.795 140.735,111.461 142.5,110.5C 147.511,110.334 152.511,110.501 157.5,111C 184.297,118.627 183.964,125.461 156.5,131.5C 149.833,131.5 143.167,131.5 136.5,131.5C 134.907,130.133 133.574,130.466 132.5,132.5C 138.913,150.005 137.579,166.838 128.5,183C 125.518,183.498 122.518,183.665 119.5,183.5C 117.041,176.956 114.874,170.289 113,163.5C 111.732,152.883 112.899,142.55 116.5,132.5C 115.426,130.466 114.093,130.133 112.5,131.5C 111.167,131.5 109.833,131.5 108.5,131.5C 96.3727,133.567 85.0394,131.4 74.5,125C 71.6044,121.329 72.271,118.329 76.5,116C 86.0241,111.809 96.0241,109.976 106.5,110.5C 108.265,111.461 110.265,111.795 112.5,111.5C 114.103,111.688 115.437,111.188 116.5,110C 110.341,93.409 111.174,77.2423 119,61.5C 122.667,57.5 126.333,57.5 130,61.5C 135.135,71.235 137.135,81.5683 136,92.5C 135.099,98.8351 134.266,105.168 133.5,111.5C 134.5,111.5 135.5,111.5 136.5,111.5 Z"/></g>
<g><path style="opacity:1" fill="#f1f3f6" d="M 120.5,110.5 C 134.044,109.958 138.544,115.958 134,128.5C 127.38,134.062 121.047,133.728 115,127.5C 112.15,120.219 113.983,114.553 120.5,110.5 Z"/></g>
<g><path style="opacity:1" fill="#d69cc7" d="M 136.5,131.5 C 138.084,134.391 139.584,137.391 141,140.5C 145.406,160.048 143.906,179.048 136.5,197.5C 135.314,200.34 133.314,202.506 130.5,204C 126.167,204.667 121.833,204.667 117.5,204C 116,203.167 114.833,202 114,200.5C 105.953,185.099 103.286,168.766 106,151.5C 106.942,144.388 109.108,137.721 112.5,131.5C 114.093,130.133 115.426,130.466 116.5,132.5C 112.899,142.55 111.732,152.883 113,163.5C 114.874,170.289 117.041,176.956 119.5,183.5C 122.518,183.665 125.518,183.498 128.5,183C 137.579,166.838 138.913,150.005 132.5,132.5C 133.574,130.466 134.907,130.133 136.5,131.5 Z"/></g>
<g><path style="opacity:0.958" fill="#dc9cc8" d="M 16.5,132.5 C 22.6823,146.993 32.6823,158.16 46.5,166C 53.5,166.667 60.5,166.667 67.5,166C 75.1017,162.901 81.7684,158.401 87.5,152.5C 88.521,153.002 88.6877,153.668 88,154.5C 84.9177,157.659 82.5843,161.325 81,165.5C 76.9033,175.473 75.57,185.806 77,196.5C 90.0885,224.629 111.589,234.796 141.5,227C 156.096,220.738 166.263,210.238 172,195.5C 173.191,186.074 172.024,177.074 168.5,168.5C 166.741,163.059 164.074,158.059 160.5,153.5C 160.833,153.167 161.167,152.833 161.5,152.5C 174.131,166.991 189.464,170.824 207.5,164C 216.32,157.498 223.654,149.665 229.5,140.5C 230.5,140.5 231.5,140.5 232.5,140.5C 232.5,142.167 232.5,143.833 232.5,145.5C 226.447,156.553 217.78,164.887 206.5,170.5C 203.505,170.294 200.838,170.96 198.5,172.5C 195.5,172.5 192.5,172.5 189.5,172.5C 184.311,170.43 178.978,168.93 173.5,168C 174.056,168.383 174.389,168.883 174.5,169.5C 174.5,170.167 174.833,170.5 175.5,170.5C 177.255,180.096 177.755,189.762 177,199.5C 171.355,212.148 162.521,221.981 150.5,229C 122.437,241.859 98.6038,236.359 79,212.5C 75.8891,208.613 73.5557,204.28 72,199.5C 71.03,190.359 71.53,181.359 73.5,172.5C 74.339,171.359 75.0057,170.026 75.5,168.5C 75,168.167 74.5,167.833 74,167.5C 70.5528,169.321 67.0528,170.654 63.5,171.5C 57.1579,171.666 50.8246,171.5 44.5,171C 29.5029,163.503 18.8362,152.003 12.5,136.5C 13.8333,136.5 15.1667,136.5 16.5,136.5C 16.5,135.167 16.5,133.833 16.5,132.5 Z"/></g>
<g><path style="opacity:0.76" fill="#9ca8e3" d="M 189.5,172.5 C 184.733,172.474 180.066,171.807 175.5,170.5C 174.833,170.5 174.5,170.167 174.5,169.5C 174.389,168.883 174.056,168.383 173.5,168C 178.978,168.93 184.311,170.43 189.5,172.5 Z"/></g>
<g><path style="opacity:0.562" fill="#9fa7e2" d="M 73.5,172.5 C 73.6495,171.448 73.4828,170.448 73,169.5C 70.0492,171.076 66.8826,171.743 63.5,171.5C 67.0528,170.654 70.5528,169.321 74,167.5C 74.5,167.833 75,168.167 75.5,168.5C 75.0057,170.026 74.339,171.359 73.5,172.5 Z"/></g>
<g><path style="opacity:0.392" fill="#9ca8e3" d="M 206.5,170.5 C 204.095,171.768 201.428,172.435 198.5,172.5C 200.838,170.96 203.505,170.294 206.5,170.5 Z"/></g>
</svg>
